<?xml version="1.0" encoding="UTF-8"?>
<svg width="24px" height="24px" viewBox="0 0 24 24" version="1.1" xmlns="http://www.w3.org/2000/svg" xmlns:xlink="http://www.w3.org/1999/xlink">
    <!-- Generator: sketchtool 41.2 (35397) - http://www.bohemiancoding.com/sketch -->
    <title>about</title>
    <desc>Created with sketchtool.</desc>
    <defs></defs>
    <g id="Icons" stroke="none" stroke-width="1" fill="none" fill-rule="evenodd">
        <g id="Icon-Set-2" transform="translate(-240.000000, -24.000000)" fill="#000000">
            <g id="Remove-24" transform="translate(240.000000, 24.000000)">
                <g id="about-icon" transform="translate(2.928932, 3.928932)">
                    <g id="Layer_1">
                        <path d="M17.8825965,4.4418103 L15.5693333,1.65841402 C14.694,0.605064836 13.4054035,0.000980315671 12.0340702,0.000980315671 L5.93094737,0.000980315671 C4.55961404,0.000980315671 3.27101754,0.605064836 2.39564912,1.65841402 L0.0823859649,4.4418103 C0.0115789474,4.52702774 -0.0156491228,4.64021919 0.00873684211,4.74819396 C0.033122807,4.85616873 0.106280702,4.94681292 0.206877193,4.99351796 L3.54821053,6.54497254 L3.54821053,16.0272859 C3.54821053,16.2245044 3.70842105,16.3843659 3.90607018,16.3843659 L14.1291228,16.3843659 C14.3267368,16.3843659 14.4869825,16.2245044 14.4869825,16.0272859 L14.4869825,6.54304692 L17.7605614,4.99232758 C17.8603509,4.94506236 17.9326667,4.85445318 17.9565263,4.74682852 C17.980386,4.63920387 17.9530877,4.52660761 17.8825965,4.4418103 Z M10.8963509,0.715175293 C10.7027719,1.59710928 9.92273684,2.24446774 8.98249123,2.24446774 C8.04224561,2.24446774 7.26214035,1.5971443 7.06859649,0.715175293 L10.8963509,0.715175293 Z M14.4869825,5.75242233 L14.4869825,5.40584573 C14.4869825,5.20862723 14.3267368,5.04876575 14.1291228,5.04876575 C13.9315088,5.04876575 13.7712632,5.20862723 13.7712632,5.40584573 L13.7712632,15.6701709 L4.26392982,15.6701709 L4.26392982,5.40584573 C4.26392982,5.20862723 4.1037193,5.04876575 3.90607018,5.04876575 C3.70842105,5.04876575 3.54821053,5.20862723 3.54821053,5.40584573 L3.54821053,5.75721888 L0.929508772,4.54127733 L2.9465614,2.11426081 C3.68550877,1.2251145 4.77326316,0.71510527 5.93091228,0.71510527 L6.34070175,0.71510527 L6.34129825,0.714790169 C6.43182456,1.27889181 6.70017544,1.79796896 7.11708772,2.20269929 C7.61926316,2.69016126 8.28168421,2.95862771 8.98245614,2.95862771 C9.68322807,2.95862771 10.3456842,2.69016126 10.8478246,2.20269929 C11.2647018,1.79800397 11.5330175,1.27889181 11.6235789,0.714790169 L11.6241754,0.71510527 L12.0339649,0.71510527 C13.191614,0.71510527 14.2793684,1.22504448 15.0183158,2.1142258 L17.0377193,4.54404322 L14.4869825,5.75242233 Z" id="Shape"></path>
                        <path d="M5.20592982,9.07999884 C5.0082807,9.07999884 4.84807018,9.23986032 4.84807018,9.43707883 L4.84807018,14.8353971 C4.84807018,15.0326156 5.0082807,15.1924771 5.20592982,15.1924771 C5.40357895,15.1924771 5.56378947,15.0326156 5.56378947,14.8353971 L5.56378947,9.43707883 C5.56378947,9.23986032 5.40357895,9.07999884 5.20592982,9.07999884 Z" id="Shape"></path>
                        <path d="M5.20592982,6.97676658 C5.0082807,6.97676658 4.84807018,7.13662806 4.84807018,7.33384657 L4.84807018,8.1050399 C4.84807018,8.3022584 5.0082807,8.46211988 5.20592982,8.46211988 C5.40357895,8.46211988 5.56378947,8.3022584 5.56378947,8.1050399 L5.56378947,7.33384657 C5.56378947,7.13662806 5.40357895,6.97676658 5.20592982,6.97676658 Z" id="Shape"></path>
                    </g>
                </g>
            </g>
        </g>
    </g>
</svg>