<?xml version="1.0" encoding="UTF-8"?>
<svg width="24px" height="24px" viewBox="0 0 24 24" version="1.1" xmlns="http://www.w3.org/2000/svg" xmlns:xlink="http://www.w3.org/1999/xlink">
    <!-- Generator: sketchtool 41.2 (35397) - http://www.bohemiancoding.com/sketch -->
    <title>analytics</title>
    <desc>Created with sketchtool.</desc>
    <defs></defs>
    <g id="Icons" stroke="none" stroke-width="1" fill="none" fill-rule="evenodd">
        <g id="Icon-Set-5" transform="translate(-24.000000, -24.000000)" fill="#262324">
            <g id="profile" transform="translate(24.000000, 24.000000)">
                <g id="analytics-icon" transform="translate(3.000000, 4.000000)">
                    <g id="Capa_1">
                        <path d="M2.28548927,2.08964386 C2.04468659,2.08964386 1.80388391,2.26985239 1.80388391,2.57019994 C1.80388391,2.87054749 2.04468659,3.05075603 2.28548927,3.05075603 C2.58649261,3.05075603 2.76709462,2.81047798 2.76709462,2.57019994 C2.82729529,2.26985239 2.58649261,2.08964386 2.28548927,2.08964386 Z M16.3724458,0.347628068 L1.68348258,0.347628068 C0.780472543,0.347628068 0.0580645161,1.06846219 0.0580645161,1.96950484 L0.0580645161,14.7643105 C0.0580645161,15.6653532 0.780472543,16.3861873 1.68348258,16.3861873 L16.4326465,16.3861873 C17.3356565,16.3861873 18.0580645,15.6653532 18.0580645,14.7643105 L18.0580645,1.96950484 C17.9978638,1.1285317 17.2754558,0.347628068 16.3724458,0.347628068 Z M17.0948538,14.82438 C17.0948538,15.2448666 16.7938505,15.5452141 16.3724458,15.5452141 L1.68348258,15.5452141 C1.26207789,15.5452141 0.96107455,15.2448666 0.96107455,14.82438 L0.96107455,12.3615301 C1.08147589,12.4816691 1.26207789,12.6018081 1.38247923,12.7820167 C1.62328191,13.0222947 1.86408458,13.3226423 2.2252886,13.5028508 C2.34568993,14.0434764 2.82729529,14.463963 3.42930197,14.463963 C4.03130866,14.463963 4.51291401,14.0434764 4.63331535,13.4427813 C5.41592405,12.8420862 5.8975294,11.8209045 6.31893408,10.7997228 C6.61993743,10.0188192 6.98114144,9.23791557 7.40254612,8.87749851 C7.6433488,9.23791557 8.00455281,9.47819361 8.42595749,9.47819361 C8.84736217,9.47819361 9.26876686,9.23791557 9.44936886,8.87749851 C9.69017154,9.05770704 9.93097422,9.29798508 10.1717769,9.47819361 C10.5329809,9.83861067 10.9543856,10.1990277 11.4359909,10.4393058 C11.6165929,10.8597923 12.0379976,11.2202094 12.5798036,11.2202094 C13.1818103,11.2202094 13.6634157,10.7997228 13.783817,10.2590972 C14.5062251,9.77854116 14.9276297,8.93756802 15.4092351,8.09659488 C16.0112418,6.95527419 16.4326465,6.23444006 17.2152552,6.05423153 L17.2152552,14.82438 L17.0948538,14.82438 Z M3.06809796,13.2025032 C3.06809796,13.0222947 3.1884993,12.9021557 3.36910131,12.9021557 C3.54970331,12.9021557 3.67010465,13.0222947 3.67010465,13.2025032 C3.67010465,13.3827118 3.54970331,13.5028508 3.36910131,13.5028508 C3.24869997,13.5028508 3.06809796,13.3827118 3.06809796,13.2025032 Z M8.06475348,8.2167339 C8.06475348,8.03652537 8.18515482,7.91638635 8.36575682,7.91638635 C8.54635883,7.91638635 8.66676017,8.03652537 8.66676017,8.2167339 C8.66676017,8.39694243 8.54635883,8.51708145 8.36575682,8.51708145 C8.24535549,8.51708145 8.06475348,8.33687292 8.06475348,8.2167339 Z M12.2788003,9.89868018 C12.2788003,9.71847165 12.3992016,9.59833263 12.5798036,9.59833263 C12.7604057,9.59833263 12.880807,9.71847165 12.880807,9.89868018 C12.880807,10.0788887 12.700205,10.1990277 12.5798036,10.1990277 C12.4594023,10.1990277 12.2788003,10.0788887 12.2788003,9.89868018 Z M17.0948538,5.03304986 C15.7102384,5.21325839 15.1082317,6.4747181 14.5062251,7.6160388 C14.2052217,8.2167339 13.9042184,8.817429 13.4828137,9.23791557 C13.242011,8.93756802 12.9410077,8.75735949 12.519603,8.75735949 C12.0379976,8.75735949 11.6767936,8.99763753 11.4359909,9.4181241 C11.1951883,9.23791557 10.9543856,9.05770704 10.7135829,8.817429 C10.3523789,8.45701194 9.93097422,8.09659488 9.44936886,7.85631684 C9.26876686,7.37576076 8.84736217,7.0153437 8.30555615,7.0153437 C7.76375013,7.0153437 7.34234545,7.37576076 7.16174345,7.85631684 C6.31893408,8.2167339 5.83732873,9.29798508 5.35572338,10.4393058 C4.99451937,11.2202094 4.69351602,12.001113 4.21191067,12.4816691 C4.09150933,12.1813216 3.79050599,12.001113 3.42930197,12.001113 C3.00789729,12.001113 2.64669328,12.2413911 2.4058906,12.4816691 C2.28548927,12.3615301 2.16508793,12.2413911 2.04468659,12.1212521 C1.74368325,11.760835 1.38247923,11.4604874 0.96107455,11.3403484 L0.96107455,4.79277182 L17.1550545,4.79277182 L17.1550545,5.03304986 L17.0948538,5.03304986 Z M17.0948538,3.89172917 L0.96107455,3.89172917 L0.96107455,1.96950484 C0.96107455,1.54901827 1.26207789,1.24867072 1.68348258,1.24867072 L16.4326465,1.24867072 C16.8540511,1.24867072 17.1550545,1.54901827 17.1550545,1.96950484 L17.1550545,3.89172917 L17.0948538,3.89172917 Z M3.85070666,2.08964386 C3.60990398,2.08964386 3.36910131,2.26985239 3.36910131,2.57019994 C3.36910131,2.87054749 3.60990398,3.05075603 3.85070666,3.05075603 C4.15171,3.05075603 4.33231201,2.81047798 4.33231201,2.57019994 C4.33231201,2.26985239 4.15171,2.08964386 3.85070666,2.08964386 Z M5.41592405,2.08964386 C5.1149207,2.08964386 4.9343187,2.3299219 4.9343187,2.57019994 C4.9343187,2.87054749 5.17512137,3.05075603 5.41592405,3.05075603 C5.71692739,3.05075603 5.8975294,2.81047798 5.8975294,2.57019994 C5.8975294,2.26985239 5.65672672,2.08964386 5.41592405,2.08964386 Z" id="Shape"></path>
                    </g>
                </g>
            </g>
        </g>
    </g>
</svg>