<?xml version="1.0" encoding="UTF-8"?>
<svg width="24px" height="24px" viewBox="0 0 24 24" version="1.1" xmlns="http://www.w3.org/2000/svg" xmlns:xlink="http://www.w3.org/1999/xlink">
    <!-- Generator: sketchtool 41.2 (35397) - http://www.bohemiancoding.com/sketch -->
    <title>blog</title>
    <desc>Created with sketchtool.</desc>
    <defs></defs>
    <g id="Icons" stroke="none" stroke-width="1" fill="none" fill-rule="evenodd">
        <g id="Icon-Set-2" transform="translate(-96.000000, -72.000000)" fill="#000000">
            <g id="Search-24" transform="translate(96.000000, 72.000000)">
                <g id="blog-icon" transform="translate(3.000000, 3.000000)">
                    <g id="Layer_1">
                        <path d="M17.1896087,5.22854027 C17.1716087,5.267195 17.1496957,5.30428792 17.118,5.33630497 L6.19826087,16.2318629 C6.1556087,16.3052678 6.09652174,16.3693019 6.0123913,16.401319 L0.592043478,17.916272 C0.580695652,17.9217384 0.567782609,17.9225193 0.55526087,17.9264238 L0.536869565,17.9318901 C0.53373913,17.9330615 0.530217391,17.9322806 0.527478261,17.9334519 C0.490695652,17.9432132 0.454304348,17.9514127 0.415565217,17.9510222 C0.377217391,17.9521936 0.341608696,17.9451655 0.305217391,17.9350137 C0.297,17.932671 0.289565217,17.9342328 0.281347826,17.9314997 C0.278217391,17.9303283 0.27626087,17.9275951 0.273130435,17.9264238 C0.238695652,17.9135389 0.208956522,17.8940163 0.179217391,17.8713701 C0.163956522,17.8604374 0.147913043,17.8506761 0.135,17.8377912 C0.122086957,17.8249063 0.112304348,17.8088978 0.101347826,17.7936702 C0.0786521739,17.7643863 0.0594782609,17.7343215 0.046173913,17.6999617 C0.0446086957,17.6968381 0.0422608696,17.6948858 0.0410869565,17.6917622 C0.0383478261,17.6839532 0.0399130435,17.6761442 0.0375652174,17.6679447 C0.0277826087,17.6320231 0.0207391304,17.5961015 0.0215217391,17.5582277 C0.0215217391,17.5191825 0.0293478261,17.4828705 0.0391304348,17.446168 C0.0406956522,17.4430444 0.0395217391,17.4399208 0.0406956522,17.4371877 L0.046173913,17.4180555 C0.0504782609,17.406342 0.0512608696,17.393457 0.0563478261,17.3817435 L1.5746087,11.9732049 C1.60669565,11.8888673 1.67086957,11.8310805 1.74443478,11.7877403 L12.497087,1.05812442 C12.5127391,1.04055409 12.5311304,1.02571692 12.5471739,1.00853704 L12.6641739,0.891791948 C12.6700435,0.885935171 12.6774783,0.883982911 12.6837391,0.878516586 C13.2487826,0.33969308 14.0071304,0 14.8511739,0 C16.5901304,0 18,1.40679789 18,3.14196576 C18,3.94668696 17.688913,4.67331779 17.1896087,5.22854027 Z M15.7108696,5.66155133 L14.2947391,4.24850621 L5.04430435,13.4791776 C5.04586957,13.4823012 5.04978261,13.4834726 5.05134783,13.4865962 L5.97991304,15.3713071 L15.7108696,5.66155133 Z M1.00134783,16.9741118 L2.09113043,16.6699498 L1.30617391,15.8870939 L1.00134783,16.9741118 Z M1.54291304,15.0441085 L2.93517391,16.4337265 L5.32995652,15.7641016 C5.32995652,15.7641016 4.31804348,13.6665945 4.31647826,13.6658136 L2.2136087,12.6545434 L1.54291304,15.0441085 Z M4.49608696,12.933326 C4.49921739,12.9348878 4.5003913,12.9384018 4.50352174,12.9403541 L13.7543478,3.70929225 L12.3382174,2.29624713 L2.60726087,12.0060029 L4.49608696,12.933326 Z M14.8390435,0.780903632 C14.1417391,0.780903632 13.5195652,1.08389424 13.0824783,1.55946455 L13.0797391,1.55673139 L12.8786087,1.75703317 L16.2512609,5.12233737 L16.4574783,4.91617882 L16.4551304,4.9138361 C16.9282174,4.47809188 17.2295217,3.85922575 17.2295217,3.16617378 C17.2295217,1.84878935 16.1593043,0.780903632 14.8390435,0.780903632 Z" id="Shape"></path>
                    </g>
                </g>
            </g>
        </g>
    </g>
</svg>