<?xml version="1.0" encoding="UTF-8"?>
<svg width="24px" height="24px" viewBox="0 0 24 24" version="1.1" xmlns="http://www.w3.org/2000/svg" xmlns:xlink="http://www.w3.org/1999/xlink">
    <!-- Generator: sketchtool 41.2 (35397) - http://www.bohemiancoding.com/sketch -->
    <title>contact</title>
    <desc>Created with sketchtool.</desc>
    <defs></defs>
    <g id="Icons" stroke="none" stroke-width="1" fill="none" fill-rule="evenodd">
        <g id="Icon-Set-3" transform="translate(-168.000000, -25.000000)" fill="#000000">
            <g id="Add-24" transform="translate(168.000000, 24.000000)">
                <g id="contact-icon" transform="translate(4.000000, 3.037343)">
                    <g id="Capa_1">
                        <g id="Group">
                            <path d="M5.08992859,14.6390071 C4.38815468,14.6390071 3.81744644,15.174974 3.81744644,15.8340281 C3.81744644,16.4930822 4.38815468,17.0290491 5.08992859,17.0290491 C5.79170249,17.0290491 6.36241073,16.4930822 6.36241073,15.8340281 C6.36241073,15.174974 5.79170249,14.6390071 5.08992859,14.6390071 Z M5.08992859,16.4315386 C4.73904163,16.4315386 4.45368751,16.1635551 4.45368751,15.8340281 C4.45368751,15.504501 4.73904163,15.2365176 5.08992859,15.2365176 C5.44081554,15.2365176 5.72616966,15.504501 5.72616966,15.8340281 C5.72616966,16.1635551 5.44081554,16.4315386 5.08992859,16.4315386 Z" id="Shape"></path>
                            <path d="M4.13556698,1.49377623 L5.40804912,1.49377623 C5.58365166,1.49377623 5.72616966,1.36023264 5.72616966,1.19502099 C5.72616966,1.02980934 5.58365166,0.896265741 5.40804912,0.896265741 L4.13556698,0.896265741 C3.95996444,0.896265741 3.81744644,1.02980934 3.81744644,1.19502099 C3.81744644,1.36023264 3.95996444,1.49377623 4.13556698,1.49377623 Z" id="Shape"></path>
                            <path d="M6.36241073,1.49377623 L6.68053127,1.49377623 C6.8561338,1.49377623 6.99865181,1.36023264 6.99865181,1.19502099 C6.99865181,1.02980934 6.8561338,0.896265741 6.68053127,0.896265741 L6.36241073,0.896265741 C6.1868082,0.896265741 6.0442902,1.02980934 6.0442902,1.19502099 C6.0442902,1.36023264 6.1868082,1.49377623 6.36241073,1.49377623 Z" id="Shape"></path>
                            <path d="M16.5422679,3.58506296 L10.8160982,3.58506296 L10.8160982,1.31601686 C10.8160982,0.590639123 10.1874921,0 9.41477728,0 L1.40132096,0 C0.62860618,0 0,0.590639123 0,1.31601686 L0,16.6089992 C0,17.3346757 0.62860618,17.9253148 1.40132096,17.9253148 L9.41445916,17.9253148 C10.1874921,17.9253148 10.8160982,17.3346757 10.8160982,16.6092979 L10.8160982,9.85892315 L16.5422679,9.85892315 L16.5422679,3.58506296 Z M1.40132096,0.597510494 L9.41445916,0.597510494 C9.83660511,0.597510494 10.1798572,0.919867405 10.1798572,1.31601686 L10.1798572,1.79253148 L0.636241073,1.79253148 L0.636241073,1.31601686 C0.636241073,0.919867405 0.979493132,0.597510494 1.40132096,0.597510494 Z M9.41477728,17.3278043 L1.40132096,17.3278043 C0.979493132,17.3278043 0.636241073,17.0054474 0.636241073,16.6092979 L0.636241073,14.3402518 L10.1798572,14.3402518 L10.1798572,16.6092979 C10.1798572,17.0054474 9.83660511,17.3278043 9.41477728,17.3278043 Z M10.1798572,13.7427414 L0.636241073,13.7427414 L0.636241073,2.39004197 L10.1798572,2.39004197 L10.1798572,3.58506296 L4.45368751,3.58506296 L4.45368751,9.85892315 L5.72616966,9.85892315 L5.72616966,11.9502099 L8.69518863,9.85892315 L10.1798572,9.85892315 L10.1798572,13.7427414 Z M15.9060268,9.26141265 L10.8160982,9.26141265 L8.48332035,9.26141265 L6.36241073,10.7551889 L6.36241073,9.26141265 L5.08992859,9.26141265 L5.08992859,4.18257346 L10.8160982,4.18257346 L15.9060268,4.18257346 L15.9060268,9.26141265 Z" id="Shape"></path>
                            <path d="M6.68053127,6.27386018 L9.86173663,6.27386018 C10.0373392,6.27386018 10.1798572,6.14031659 10.1798572,5.97510494 C10.1798572,5.80989329 10.0373392,5.67634969 9.86173663,5.67634969 L6.68053127,5.67634969 C6.50492873,5.67634969 6.36241073,5.80989329 6.36241073,5.97510494 C6.36241073,6.14031659 6.50492873,6.27386018 6.68053127,6.27386018 Z" id="Shape"></path>
                            <path d="M6.36241073,7.46888117 C6.36241073,7.63409282 6.50492873,7.76763642 6.68053127,7.76763642 L14.3154241,7.76763642 C14.4910267,7.76763642 14.6335447,7.63409282 14.6335447,7.46888117 C14.6335447,7.30366952 14.4910267,7.17012592 14.3154241,7.17012592 L6.68053127,7.17012592 C6.50492873,7.17012592 6.36241073,7.30366952 6.36241073,7.46888117 Z" id="Shape"></path>
                        </g>
                    </g>
                </g>
            </g>
        </g>
    </g>
</svg>