<?xml version="1.0" encoding="UTF-8"?>
<svg width="24px" height="24px" viewBox="0 0 24 24" version="1.1" xmlns="http://www.w3.org/2000/svg" xmlns:xlink="http://www.w3.org/1999/xlink">
    <!-- Generator: sketchtool 41.2 (35397) - http://www.bohemiancoding.com/sketch -->
    <title>design</title>
    <desc>Created with sketchtool.</desc>
    <defs></defs>
    <g id="Icons" stroke="none" stroke-width="1" fill="none" fill-rule="evenodd">
        <g id="Icon-Set-3" transform="translate(-96.000000, -72.000000)" fill="#000000">
            <g id="Search-24" transform="translate(96.000000, 72.000000)">
                <g id="design-icon" transform="translate(3.000000, 3.000000)">
                    <g id="Layer_1">
                        <path d="M17.7552632,0.278983446 C17.2398947,-0.263757432 16.2062807,0.0458997801 14.5023509,1.25378095 C13.0548421,2.27991082 11.3185614,3.83403598 9.61336842,5.63004042 C7.08540351,8.29259724 5.1634386,10.9068151 4.52350877,12.5208465 C4.41817544,12.480638 4.30894737,12.448486 4.19624561,12.4250187 C3.53407018,12.2870607 2.81487719,12.4634533 2.22298246,12.9086295 C1.37361404,13.5474568 1.14866667,14.4597242 1.116,14.6134996 C0.937192982,15.3168527 0.598561404,15.987943 0.136315789,16.5547794 C-0.0123508772,16.737085 0.00463157895,17.0111533 0.174561404,17.1716178 C0.768491228,17.7322455 1.52824561,18.0134463 2.31849123,18.0134463 C3.08010526,18.0134463 3.87007018,17.7522019 4.56680702,17.228161 C4.89350877,16.9824382 5.14084211,16.7107352 5.18873684,16.6569637 C5.78073684,15.9869082 6.03210526,15.108345 5.90740351,14.3056163 C7.41091228,13.7379299 10.0320702,11.6380703 12.674807,8.85459237 C14.38,7.05858793 15.8555789,5.22980321 16.8297895,3.70524312 C17.9765614,1.9104952 18.2706316,0.821835194 17.7552632,0.278983446 Z M4.57515789,16.0543905 C4.55263158,16.0797056 4.34726316,16.3076154 4.07936842,16.5090274 C3.10631579,17.2407631 1.91501754,17.3253931 1.0497193,16.7619936 C1.45494737,16.1768269 1.75610526,15.5171931 1.92912281,14.8308768 L1.92912281,14.8308398 C1.93105263,14.8231529 1.93280702,14.8153921 1.93435088,14.8075573 C1.93578947,14.8005726 2.08147368,14.1006933 2.71045614,13.6276521 C3.11501754,13.3233166 3.59736842,13.2009172 4.03364912,13.2917559 C4.39347368,13.3666295 4.69596491,13.5829719 4.88540351,13.9007965 C5.25715789,14.5245087 5.12645614,15.4304565 4.57515789,16.0543905 Z M5.62164912,13.4766115 C5.61305263,13.4614594 5.48585965,13.1894607 5.24887719,12.9873095 C5.45305263,12.4123797 5.89259649,11.6352986 6.50522807,10.7429877 L7.8194386,12.1271876 C6.89491228,12.8281386 6.13733333,13.2850668 5.62164912,13.4766115 Z M8.49817544,11.592651 L7.01392982,10.0293607 C7.27042105,9.68160145 7.54792982,9.32138796 7.84368421,8.9529332 L9.52108772,10.7196682 C9.16607018,11.0354602 8.82417544,11.326861 8.49817544,11.592651 Z M16.0055789,3.4098141 C15.060807,4.84800721 13.6672281,6.55978815 12.0816491,8.22973449 C11.4159298,8.93090722 10.7705263,9.56873678 10.1572982,10.1401558 L8.39389474,8.28284076 C8.95319298,7.61644395 9.56301754,6.93252984 10.2065614,6.25478743 C11.7921053,4.58476717 13.4173333,3.11700898 14.7827719,2.12181158 C16.4640351,0.896523967 17.0441754,0.89456528 17.155614,0.910604334 C17.1709123,1.02786682 17.1688772,1.63912476 16.0055789,3.4098141 Z" id="Shape"></path>
                        <path d="M4.21950877,14.8608484 C4.01659649,14.7432163 3.76154386,14.8210834 3.64982456,15.0348389 C3.63852632,15.0564583 3.62487719,15.0766734 3.60919298,15.0949299 C3.57782456,15.1292993 3.47473684,15.2342553 3.36764912,15.3148571 C3.20519298,15.4369978 3.02989474,15.5245474 2.84659649,15.5750667 C2.62249123,15.6368208 2.48838596,15.8782196 2.54701754,16.1142598 C2.59635088,16.3127893 2.76631579,16.4442799 2.95245614,16.4442799 C2.98761404,16.4442799 3.02329825,16.4395865 3.05891228,16.42983 C3.34133333,16.3519999 3.60922807,16.2188093 3.85515789,16.0338797 C4.01301754,15.915139 4.2225614,15.6977618 4.224,15.6960987 C4.28635088,15.6248839 4.34045614,15.5457234 4.38480702,15.4608346 C4.49645614,15.2470791 4.42245614,14.9784435 4.21950877,14.8608484 Z" id="Shape"></path>
                    </g>
                </g>
            </g>
        </g>
    </g>
</svg>