<?xml version="1.0" encoding="UTF-8"?>
<svg width="24px" height="24px" viewBox="0 0 24 24" version="1.1" xmlns="http://www.w3.org/2000/svg" xmlns:xlink="http://www.w3.org/1999/xlink">
    <!-- Generator: sketchtool 41.2 (35397) - http://www.bohemiancoding.com/sketch -->
    <title>details</title>
    <desc>Created with sketchtool.</desc>
    <defs></defs>
    <g id="Icons" stroke="none" stroke-width="1" fill="none" fill-rule="evenodd">
        <g id="Icon-Set-4" transform="translate(-24.000000, -72.000000)" fill="#000000">
            <g id="Star-24" transform="translate(24.000000, 72.000000)">
                <g id="details-icon" transform="translate(3.000000, 3.000000)">
                    <g id="Capa_1">
                        <g id="Group">
                            <path d="M8.25899241,3.74552816 C6.87312911,5.12841755 6.87312911,7.37842629 8.25899241,8.76131568 C8.95192405,9.45273764 9.86213165,9.79844862 10.7723392,9.79844862 C11.6825468,9.79844862 12.5927544,9.45273764 13.2856861,8.76131568 C14.6715494,7.37842629 14.6715494,5.12841755 13.2856861,3.74552816 C11.8998684,2.36268424 9.6448557,2.36268424 8.25899241,3.74552816 Z M13.443038,7.82208038 L13.443038,4.68471799 C14.0117468,5.64918933 14.0117468,6.85769998 13.443038,7.82208038 Z M12.9873418,4.0920576 L12.9873418,8.41478623 C12.9792759,8.42301636 12.9717114,8.43161026 12.9635544,8.43979492 C11.7553215,9.64530452 9.78953924,9.64539546 8.58121519,8.43979492 C8.40107848,8.26005067 8.24846582,8.06325505 8.1220557,7.85495543 L8.38481013,7.85495543 C8.51067342,7.85495543 8.61265823,7.75314734 8.61265823,7.62760374 C8.61265823,7.50206014 8.51067342,7.40025205 8.38481013,7.40025205 L7.89507342,7.40025205 C7.71616709,6.95150528 7.6468557,6.46924688 7.68654684,5.9943092 L9.47848101,5.9943092 C9.6043443,5.9943092 9.70632911,5.89250111 9.70632911,5.76695751 C9.70632911,5.6414139 9.6043443,5.53960582 9.47848101,5.53960582 L7.75859241,5.53960582 C7.87948861,5.02760981 8.1328557,4.54103172 8.51778228,4.13366296 L11.4379747,4.13366296 C11.563838,4.13366296 11.6658228,4.03185488 11.6658228,3.90631127 C11.6658228,3.78076767 11.563838,3.67895958 11.4379747,3.67895958 L9.0560962,3.67895958 C9.57381266,3.33511289 10.1730076,3.16291672 10.7723392,3.16291672 C11.565843,3.16291672 12.3593924,3.46429412 12.9635089,4.06709439 C12.9717114,4.07523358 12.9792759,4.08382747 12.9873418,4.0920576 Z" id="Shape"></path>
                            <path d="M17.7368354,12.0451835 L14.4357722,8.75131221 C14.9380405,8.02119499 15.2085418,7.1581225 15.2085418,6.25339918 C15.2085418,5.07107945 14.7470582,3.9594661 13.9091696,3.12344846 C13.5636152,2.77864689 13.1743595,2.50396058 12.7594937,2.29693413 L12.7594937,0.261408974 C12.7594937,0.13586537 12.6575089,0.0340572832 12.5316456,0.0340572832 L2.53777215,0.0340572832 C2.47734684,0.0340572832 2.41938228,0.0580201514 2.37668354,0.100625858 L0.0667594937,2.40506259 C0.0240151899,2.44771377 0,2.50555204 0,2.56584571 L0,17.4946671 C0,17.6202107 0.10198481,17.7220188 0.227848101,17.7220188 L12.5316456,17.7220188 C12.6575089,17.7220188 12.7594937,17.6202107 12.7594937,17.4946671 L12.7594937,10.2099097 C12.9363949,10.1216518 13.1084658,10.0208895 13.2745671,9.90757743 L16.5768608,13.2026764 C16.7367646,13.3622318 16.9467494,13.4420323 17.1568709,13.4420323 C17.3668557,13.4420323 17.5769772,13.3622318 17.736881,13.2026764 C17.8918177,13.0481227 17.9771241,12.8425513 17.9771241,12.62393 C17.9770785,12.4053086 17.8917722,12.1997826 17.7368354,12.0451835 Z M14.7528,6.25339918 C14.7528,7.31431311 14.3387544,8.31170498 13.5869468,9.06182914 C12.0348911,10.6104579 9.50978734,10.6104124 7.95777722,9.06182914 C7.20596962,8.31165951 6.79192405,7.31426764 6.79192405,6.25339918 C6.79192405,5.19253073 7.20596962,4.19509339 7.95777722,3.44496922 C8.73378228,2.67070031 9.75303797,2.28356585 10.7723848,2.28356585 C11.7917316,2.28356585 12.8109418,2.67070031 13.5869924,3.44496922 C14.3387544,4.19513886 14.7528,5.19253073 14.7528,6.25339918 Z M2.30992405,0.810145013 L2.30992405,2.33844855 L0.778010127,2.33844855 L2.30992405,0.810145013 Z M12.3037975,17.2673154 L0.455696203,17.2673154 L0.455696203,2.7931974 L2.53777215,2.7931974 C2.66363544,2.7931974 2.76562025,2.69138931 2.76562025,2.56584571 L2.76562025,0.488760664 L12.3037975,0.488760664 L12.3037975,2.10059321 C10.7311443,1.52593908 8.89564557,1.86614814 7.6356,3.12349393 C7.35484557,3.40363669 7.11660759,3.71483568 6.92357468,4.0491336 L4.78490127,4.0491336 C4.65903797,4.0491336 4.55705316,4.15094169 4.55705316,4.2764853 C4.55705316,4.4020289 4.65903797,4.50383699 4.78490127,4.50383699 L6.69527089,4.50383699 C6.56667342,4.80198599 6.47152405,5.1142308 6.41164557,5.43597892 L2.21012658,5.43597892 C2.08426329,5.43597892 1.98227848,5.537787 1.98227848,5.66333061 C1.98227848,5.78887421 2.08426329,5.8906823 2.21012658,5.8906823 L6.35108354,5.8906823 C6.34137722,6.01072399 6.33622785,6.13172056 6.33622785,6.25349012 C6.33622785,6.44546589 6.34857722,6.63548643 6.37254684,6.82282423 L4.23797468,6.82282423 C4.11211139,6.82282423 4.01012658,6.92463231 4.01012658,7.05017592 C4.01012658,7.17571952 4.11211139,7.27752761 4.23797468,7.27752761 L6.45521013,7.27752761 C6.53158481,7.60077624 6.6440962,7.91311199 6.79078481,8.20966954 L2.21012658,8.20966954 C2.08426329,8.20966954 1.98227848,8.31147762 1.98227848,8.43702123 C1.98227848,8.56256483 2.08426329,8.66437292 2.21012658,8.66437292 L7.05062278,8.66437292 C7.21822785,8.92082563 7.41353924,9.16186389 7.63555443,9.38344084 C7.71037975,9.45810314 7.78789367,9.52830934 7.86659241,9.59651485 L7.08607595,9.59651485 C6.96021266,9.59651485 6.85822785,9.69832294 6.85822785,9.82386654 C6.85822785,9.94941014 6.96021266,10.0512182 7.08607595,10.0512182 L8.49372152,10.0512182 C9.19253165,10.4685905 9.9823443,10.677845 10.7723848,10.677845 C11.2916051,10.677845 11.8105063,10.5866315 12.3037975,10.4063416 L12.3037975,17.2673154 Z M13.9091696,9.38339537 C13.9957063,9.2970472 14.0780051,9.20760705 14.1564304,9.11557508 L16.4930127,11.4470667 L15.977438,11.9615181 L13.6399443,9.62911708 C13.7319949,9.55118092 13.8222684,9.47006184 13.9091696,9.38339537 Z M17.4146127,12.8811557 C17.272481,13.0229776 17.0411696,13.0229776 16.899038,12.8811557 L16.2996152,12.2830388 L16.8151899,11.7685874 L17.4146127,12.3667043 C17.4834684,12.4354099 17.5213823,12.5267598 17.5213823,12.62393 C17.5213823,12.7211001 17.4834684,12.81245 17.4146127,12.8811557 Z" id="Shape"></path>
                            <path d="M2.21012658,4.54908813 L4.03295696,4.54908813 C4.15882025,4.54908813 4.26080506,4.43713813 4.26080506,4.29908813 C4.26080506,4.16103813 4.15882025,4.04908813 4.03295696,4.04908813 L2.21012658,4.04908813 C2.08426329,4.04908813 1.98227848,4.16103813 1.98227848,4.29908813 C1.98227848,4.43713813 2.08426329,4.54908813 2.21012658,4.54908813 Z" id="Shape"></path>
                            <path d="M2.21012658,7.32277876 L3.46333671,7.32277876 C3.5892,7.32277876 3.69118481,7.21082876 3.69118481,7.07277876 C3.69118481,6.93472876 3.5892,6.82277876 3.46333671,6.82277876 L2.21012658,6.82277876 C2.08426329,6.82277876 1.98227848,6.93472876 1.98227848,7.07277876 C1.98227848,7.21082876 2.08426329,7.32277876 2.21012658,7.32277876 Z" id="Shape"></path>
                            <path d="M2.21012658,10.0964694 L6.4162481,10.0964694 C6.54211139,10.0964694 6.6440962,9.98451938 6.6440962,9.84646938 C6.6440962,9.70841938 6.54211139,9.59646938 6.4162481,9.59646938 L2.21012658,9.59646938 C2.08426329,9.59646938 1.98227848,9.70841938 1.98227848,9.84646938 C1.98227848,9.98451938 2.08426329,10.0964694 2.21012658,10.0964694 Z" id="Shape"></path>
                            <path d="M10.5493671,10.9833147 L3.94181772,10.9833147 C3.81595443,10.9833147 3.71396962,11.0952647 3.71396962,11.2333147 C3.71396962,11.3713647 3.81595443,11.4833147 3.94181772,11.4833147 L10.5493671,11.4833147 C10.6752304,11.4833147 10.7772152,11.3713647 10.7772152,11.2333147 C10.7772152,11.0952647 10.6752304,10.9833147 10.5493671,10.9833147 Z" id="Shape"></path>
                            <path d="M2.21012658,11.4833147 L3.2127038,11.4833147 C3.33856709,11.4833147 3.4405519,11.3713647 3.4405519,11.2333147 C3.4405519,11.0952647 3.33856709,10.9833147 3.2127038,10.9833147 L2.21012658,10.9833147 C2.08426329,10.9833147 1.98227848,11.0952647 1.98227848,11.2333147 C1.98227848,11.3713647 2.08426329,11.4833147 2.21012658,11.4833147 Z" id="Shape"></path>
                            <path d="M10.5493671,13.7570053 L6.24308354,13.7570053 C6.11722025,13.7570053 6.01523544,13.8689553 6.01523544,14.0070053 C6.01523544,14.1450553 6.11722025,14.2570053 6.24308354,14.2570053 L10.5493671,14.2570053 C10.6752304,14.2570053 10.7772152,14.1450553 10.7772152,14.0070053 C10.7772152,13.8689553 10.6752304,13.7570053 10.5493671,13.7570053 Z" id="Shape"></path>
                            <path d="M2.21012658,14.2570053 L5.52764051,14.2570053 C5.6535038,14.2570053 5.75548861,14.1450553 5.75548861,14.0070053 C5.75548861,13.8689553 5.6535038,13.7570053 5.52764051,13.7570053 L2.21012658,13.7570053 C2.08426329,13.7570053 1.98227848,13.8689553 1.98227848,14.0070053 C1.98227848,14.1450553 2.08426329,14.2570053 2.21012658,14.2570053 Z" id="Shape"></path>
                            <path d="M10.5493671,15.1438506 L8.11139241,15.1438506 C7.98552911,15.1438506 7.8835443,15.2558006 7.8835443,15.3938506 C7.8835443,15.5319006 7.98552911,15.6438506 8.11139241,15.6438506 L10.5493671,15.6438506 C10.6752304,15.6438506 10.7772152,15.5319006 10.7772152,15.3938506 C10.7772152,15.2558006 10.6752304,15.1438506 10.5493671,15.1438506 Z" id="Shape"></path>
                            <path d="M7.43245063,15.1438506 L3.35396962,15.1438506 C3.22810633,15.1438506 3.12612152,15.2558006 3.12612152,15.3938506 C3.12612152,15.5319006 3.22810633,15.6438506 3.35396962,15.6438506 L7.43245063,15.6438506 C7.55831392,15.6438506 7.66029873,15.5319006 7.66029873,15.3938506 C7.66029873,15.2558006 7.55826835,15.1438506 7.43245063,15.1438506 Z" id="Shape"></path>
                            <path d="M2.66586835,15.1438506 L2.21012658,15.1438506 C2.08426329,15.1438506 1.98227848,15.2558006 1.98227848,15.3938506 C1.98227848,15.5319006 2.08426329,15.6438506 2.21012658,15.6438506 L2.66586835,15.6438506 C2.79173165,15.6438506 2.89371646,15.5319006 2.89371646,15.3938506 C2.89371646,15.2558006 2.79173165,15.1438506 2.66586835,15.1438506 Z" id="Shape"></path>
                            <path d="M10.5493671,12.37016 L9.15953924,12.37016 C9.03367595,12.37016 8.93169114,12.48211 8.93169114,12.62016 C8.93169114,12.75821 9.03367595,12.87016 9.15953924,12.87016 L10.5493671,12.87016 C10.6752304,12.87016 10.7772152,12.75821 10.7772152,12.62016 C10.7772152,12.48211 10.6752304,12.37016 10.5493671,12.37016 Z" id="Shape"></path>
                            <path d="M2.21012658,12.87016 L8.36202532,12.87016 C8.48788861,12.87016 8.58987342,12.75821 8.58987342,12.62016 C8.58987342,12.48211 8.48788861,12.37016 8.36202532,12.37016 L2.21012658,12.37016 C2.08426329,12.37016 1.98227848,12.48211 1.98227848,12.62016 C1.98227848,12.75821 2.08426329,12.87016 2.21012658,12.87016 Z" id="Shape"></path>
                            <path d="M11.4379747,5.53960582 L10.6405063,5.53960582 C10.514643,5.53960582 10.4126582,5.65155582 10.4126582,5.78960582 C10.4126582,5.92765582 10.514643,6.03960582 10.6405063,6.03960582 L11.4379747,6.03960582 C11.563838,6.03960582 11.6658228,5.92765582 11.6658228,5.78960582 C11.6658228,5.65155582 11.563838,5.53960582 11.4379747,5.53960582 Z" id="Shape"></path>
                            <path d="M11.4379747,7.40025205 L9.34177215,7.40025205 C9.21590886,7.40025205 9.11392405,7.51220205 9.11392405,7.65025205 C9.11392405,7.78830205 9.21590886,7.90025205 9.34177215,7.90025205 L11.4379747,7.90025205 C11.563838,7.90025205 11.6658228,7.78830205 11.6658228,7.65025205 C11.6658228,7.51220205 11.563838,7.40025205 11.4379747,7.40025205 Z" id="Shape"></path>
                        </g>
                    </g>
                </g>
            </g>
        </g>
    </g>
</svg>