<?xml version="1.0" encoding="UTF-8"?>
<svg width="24px" height="24px" viewBox="0 0 24 24" version="1.1" xmlns="http://www.w3.org/2000/svg" xmlns:xlink="http://www.w3.org/1999/xlink">
    <!-- Generator: sketchtool 41.2 (35397) - http://www.bohemiancoding.com/sketch -->
    <title>dispute</title>
    <desc>Created with sketchtool.</desc>
    <defs></defs>
    <g id="Icons" stroke="none" stroke-width="1" fill="none" fill-rule="evenodd">
        <g id="Icon-Set-5" transform="translate(-96.000000, -72.000000)" fill="#241F20">
            <g id="Menu-24-Copy" transform="translate(96.000000, 72.000000)">
                <g id="dispute-icon" transform="translate(3.000000, 4.000000)">
                    <g id="Layer_1">
                        <path d="M17.8995937,6.3894375 L17.892,6.3725625 L17.8965,6.3691875 L17.8408125,6.262875 L17.8408125,6.262875 L14.8651875,0.5979375 C14.7841875,0.45 14.5015312,0.01575 13.9573125,0.01575 L3.99065625,0.01575 C3.384,0.01575 3.08025,0.61340625 3.0735,0.62746875 L0.15159375,6.19115625 C0.15159375,6.19115625 0.15075,6.1936875 0.1501875,6.1936875 L0.12965625,6.23334375 C0.08071875,6.330375 -0.028125,6.593625 0.079875,6.8535 C0.822375,8.05865625 2.1459375,8.8678125 3.66496875,8.8678125 C5.15053125,8.8678125 6.44596875,8.092125 7.19690625,6.93225 C7.31165625,6.66815625 7.15190625,6.33825 7.15190625,6.33825 L4.38721875,1.07353125 L4.38721875,1.07353125 L4.36021875,1.02234375 C4.32309375,0.93684375 4.28990625,0.7734375 4.58634375,0.7734375 L8.21109375,0.7734375 C8.31403125,0.7768125 8.600625,0.82771875 8.600625,1.30753125 L8.600625,13.7792812 C8.593875,13.9030312 8.5471875,14.1530625 8.290125,14.3116875 L6.4755,15.433875 C6.4755,15.433875 5.999625,15.73425 6.4755,15.73425 L11.624625,15.73425 C11.9753437,15.73425 11.624625,15.4904062 11.624625,15.4904062 L9.7554375,14.3462812 C9.75459375,14.3462812 9.75459375,14.3454375 9.75375,14.3454375 C9.446625,14.1572813 9.38925,13.9201875 9.3808125,13.800375 L9.3808125,1.25409375 C9.3808125,0.82040625 9.69159375,0.7756875 9.801,0.77315625 L13.34475,0.77315625 C13.438125,0.77484375 13.7207812,0.8055 13.5421875,1.14609375 L10.7670937,6.42909375 C10.7670937,6.42909375 10.68075,6.6375 10.7780625,6.8653125 C11.5216875,8.0634375 12.8399063,8.8678125 14.3541563,8.8678125 C15.8715,8.8678125 17.1945,8.06203125 17.9367187,6.85940625 C18.0106875,6.66534375 17.9271562,6.4501875 17.8995937,6.3894375 Z M5.855625,7.4761875 C5.38790625,7.8103125 4.56271875,8.30221875 3.7130625,8.335125 C3.69646875,8.3368125 3.681,8.34103125 3.66496875,8.34271875 C3.6624375,8.341875 3.66159375,8.3401875 3.65990625,8.33821875 C3.62278125,8.34103125 3.5865,8.34665625 3.549375,8.34665625 C3.53025,8.34665625 3.51225,8.3424375 3.49284375,8.3424375 C2.6139375,8.33315625 1.794375,7.7805 1.36828125,7.43709375 L1.3685625,7.43709375 C1.3685625,7.43709375 1.029375,7.16878125 1.3685625,7.16878125 L1.801125,7.16878125 L5.520375,7.169625 L5.8483125,7.169625 C5.84803125,7.16990625 6.18440625,7.25259375 5.855625,7.4761875 Z M6.253875,6.22321875 L6.25415625,6.2240625 L6.292125,6.296625 C6.3511875,6.418125 6.43978125,6.65015625 6.25415625,6.65015625 L0.98521875,6.6493125 L0.98521875,6.6493125 C0.8105625,6.6493125 0.84515625,6.489 0.90084375,6.35990625 L0.984375,6.20128125 L0.98521875,6.2004375 L0.98521875,6.2004375 L3.4970625,1.4175 C3.4970625,1.4175 3.6253125,1.21921875 3.729375,1.4175 L3.72965625,1.4175 L6.253875,6.22321875 Z M11.917125,6.6493125 C11.5613438,6.6493125 11.6260313,6.4063125 11.6836875,6.2814375 L11.7208125,6.2105625 C11.7208125,6.20971875 11.7222187,6.2071875 11.7222187,6.2071875 L14.1778125,1.531125 C14.1809062,1.5260625 14.3479687,1.2088125 14.5175625,1.53196875 L16.966125,6.1936875 C17.0170312,6.29409375 17.172,6.65015625 16.8083437,6.65015625 L11.9179688,6.6493125 L11.917125,6.6493125 Z M12.1980937,7.47871875 C12.1654687,7.450875 12.1390312,7.42640625 12.110625,7.40109375 C11.9252812,7.1893125 12.2594062,7.16934375 12.2594062,7.16934375 L12.672,7.16934375 L16.324875,7.1701875 L16.4638125,7.1701875 C16.4638125,7.1701875 16.7821875,7.1836875 16.5864375,7.39040625 C16.5754687,7.39940625 16.5653437,7.4086875 16.5535312,7.41909375 C16.53525,7.43653125 16.513875,7.45453125 16.4888438,7.47478125 C16.4759063,7.48575 16.4615625,7.4975625 16.4475,7.50853125 C16.423875,7.5268125 16.403625,7.543125 16.38675,7.55746875 C15.944625,7.90678125 15.2012812,8.36325 14.353875,8.34721875 C13.4142187,8.37984375 12.6194062,7.83815625 12.1980937,7.47871875 Z" id="Shape"></path>
                    </g>
                </g>
            </g>
        </g>
    </g>
</svg>