<?xml version="1.0" encoding="UTF-8"?>
<svg width="24px" height="24px" viewBox="0 0 24 24" version="1.1" xmlns="http://www.w3.org/2000/svg" xmlns:xlink="http://www.w3.org/1999/xlink">
    <!-- Generator: sketchtool 41.2 (35397) - http://www.bohemiancoding.com/sketch -->
    <title>dress</title>
    <desc>Created with sketchtool.</desc>
    <defs></defs>
    <g id="Icons" stroke="none" stroke-width="1" fill="none" fill-rule="evenodd">
        <g id="Icon-Set-3" transform="translate(-168.000000, -72.000000)" fill="#000000">
            <g id="Edit-24" transform="translate(168.000000, 72.000000)">
                <g id="dress-icon" transform="translate(4.500000, 3.000000)">
                    <g id="Capa_1">
                        <path d="M14.6408736,14.7278315 C14.5996752,14.5958049 14.4861996,14.4991397 14.3491249,14.479184 C13.3670029,14.3363415 12.3175635,13.6926519 11.3940792,12.6666918 C10.5255928,11.701796 9.83673943,10.4915654 9.4474345,9.24896674 L10.4845144,5.35513969 L10.9898148,5.6022306 C11.1683279,5.68951663 11.3839996,5.61588027 11.4714762,5.4377561 C11.5589928,5.25959202 11.4851557,5.04443016 11.3066426,4.95710421 L7.599266,3.14417295 L7.599266,2.47206652 C8.12188578,2.31697118 8.50411099,1.83320621 8.50411099,1.26207539 C8.50407099,0.566181818 7.93665294,0 7.23923993,0 C6.54182691,0 5.97440886,0.566181818 5.97440886,1.26207539 C5.97440886,1.4604745 6.13556263,1.62127716 6.33439493,1.62127716 C6.53322724,1.62127716 6.69438101,1.4604745 6.69438101,1.26207539 C6.69438101,0.962261641 6.93877155,0.718403548 7.23923993,0.718403548 C7.5397083,0.718403548 7.78409885,0.962261641 7.78409885,1.26207539 C7.78409885,1.56184922 7.5396683,1.80574723 7.23923993,1.80574723 C7.04040762,1.80574723 6.87925385,1.96654989 6.87925385,2.164949 L6.87925385,3.14417295 L3.98408586,4.55994678 C3.98028601,4.56170288 3.97656615,4.56357871 3.9728463,4.56545455 L3.17187729,4.95710421 C2.99336419,5.04443016 2.91952705,5.25959202 3.00704366,5.4377561 C3.09456028,5.61584035 3.31019193,5.68947672 3.48870503,5.6022306 L3.90196904,5.40015965 L4.93104923,9.26409313 C4.33331235,11.9400266 3.02436299,14.1324745 1.58349874,14.8631308 C1.40626559,14.9530111 1.33558833,15.1692506 1.42566484,15.3460976 C1.51570136,15.5229446 1.73233298,15.5935078 1.90968612,15.5035876 C2.74597376,15.0795299 3.54258294,14.2555211 4.21339699,13.1208027 C4.80861396,12.1138803 5.28167566,10.9070421 5.58886378,9.61511308 L6.3868729,9.61511308 C6.58570521,9.61511308 6.74685898,9.45431042 6.74685898,9.25591131 C6.74685898,9.0575122 6.58570521,8.89670953 6.3868729,8.89670953 L5.57814419,8.89670953 L4.56106354,5.07779601 L5.30083492,4.71607982 C5.53222597,5.56766741 6.31359574,6.19591131 7.23923993,6.19591131 C8.16492411,6.19591131 8.94629388,5.56770732 9.17760493,4.71607982 L9.82537987,5.03285588 L8.79625969,8.89674945 L8.42547403,8.89674945 C8.22664173,8.89674945 8.06548796,9.05755211 8.06548796,9.25595122 C8.06548796,9.45435033 8.22664173,9.61515299 8.42547403,9.61515299 L8.80921919,9.61515299 C9.23632266,10.900816 9.95769475,12.1460887 10.8583799,13.1467051 C11.6876278,14.0680177 12.5919128,14.7023282 13.5089574,15.0120399 C12.9328996,15.4215299 12.2538859,15.7432151 11.5080348,15.9580576 C10.1712065,14.6525188 9.06808917,12.9618758 8.50067112,11.2725898 C8.43751357,11.0845277 8.23352146,10.9830333 8.04496875,11.0461729 C7.85645605,11.1091929 7.75485998,11.3128204 7.81805753,11.5009224 C8.24352107,12.7677073 8.9484938,14.0454678 9.85677866,15.1959911 C10.7425444,16.3180976 11.7785843,17.2679069 12.8528627,17.9427672 C12.9124204,17.980204 12.9787379,17.9980443 13.0443353,17.9980443 C13.1639307,17.9980443 13.2808862,17.9386164 13.3493235,17.8301774 C13.4552394,17.6623104 13.4047214,17.4405233 13.2364879,17.3348381 C12.8560226,17.0958492 12.483117,16.82098 12.122491,16.5166164 C13.0563349,16.191898 13.8841428,15.707694 14.5421974,15.0978093 C14.6436735,15.0036984 14.682072,14.8598182 14.6408736,14.7278315 Z M7.23923993,5.47750776 C6.59658479,5.47750776 6.06232546,5.00543681 5.96648917,4.3906031 L7.23923993,3.76818625 L8.51191069,4.39056319 C8.4161144,5.00543681 7.88185506,5.47750776 7.23923993,5.47750776 Z M9.86729825,16.6125233 C9.87221806,16.8108426 9.71506414,16.9755965 9.51631183,16.9804656 C9.38223702,16.9838182 9.24708225,16.9840576 9.11460737,16.9813038 C7.74058053,16.953286 6.43479105,16.6159157 5.32559396,16.0039157 C4.40130972,16.7568027 3.23283493,17.1807007 2.02344172,17.1807007 C1.43674441,17.1807007 0.840687475,17.0810022 0.257910022,16.8705898 C0.0709572548,16.8031397 -0.0257990019,16.5971574 0.0418383813,16.4106519 C0.109475765,16.2241463 0.31586778,16.1275211 0.502820547,16.1950909 C2.82813058,17.0343858 5.40443091,15.8297029 6.24575836,13.509459 C6.31339575,13.3229135 6.51982776,13.2263282 6.70674053,13.293898 C6.8936933,13.3613481 6.99040955,13.5673304 6.92277217,13.7538359 C6.68374142,14.4130909 6.32407533,14.9946785 5.87749261,15.4828736 C6.83993537,15.9705499 7.95557221,16.2390732 9.1293668,16.2630599 C9.25108209,16.2655743 9.37523729,16.2652949 9.49851252,16.2622616 C9.69626487,16.2583902 9.86241844,16.4142439 9.86729825,16.6125233 Z" id="XMLID_64_"></path>
                    </g>
                </g>
            </g>
        </g>
    </g>
</svg>