<?xml version="1.0" encoding="UTF-8"?>
<svg width="24px" height="24px" viewBox="0 0 24 24" version="1.1" xmlns="http://www.w3.org/2000/svg" xmlns:xlink="http://www.w3.org/1999/xlink">
    <!-- Generator: sketchtool 41.2 (35397) - http://www.bohemiancoding.com/sketch -->
    <title>edit</title>
    <desc>Created with sketchtool.</desc>
    <defs></defs>
    <g id="Icons" stroke="none" stroke-width="1" fill="none" fill-rule="evenodd">
        <g id="Icon-Set-5" transform="translate(-168.000000, -25.000000)" fill="#000000">
            <g id="Add-24" transform="translate(168.000000, 24.000000)">
                <g id="edit-icon" transform="translate(3.000000, 3.000000)">
                    <g id="Expanded">
                        <g id="Group">
                            <path d="M14,17.5942369 L0,17.5942369 L0,1.46618641 L10.972973,1.46618641 C11.1818378,1.46618641 11.3513514,1.63039929 11.3513514,1.83273301 C11.3513514,2.03506674 11.1818378,2.19927962 10.972973,2.19927962 L0.756756757,2.19927962 L0.756756757,16.8611437 L13.2432432,16.8611437 L13.2432432,8.79711847 C13.2432432,8.59478474 13.4127568,8.43057186 13.6216216,8.43057186 C13.8304865,8.43057186 14,8.59478474 14,8.79711847 L14,17.5942369 Z" id="Shape"></path>
                            <path d="M7.94828571,10.0298147 C7.85277551,10.0298147 7.75873469,9.99279349 7.68820408,9.92241654 C7.57653061,9.81098637 7.54861224,9.6405422 7.61914286,9.49942176 L8.658,7.42586763 C8.67563265,7.39067915 8.69877551,7.35842305 8.72706122,7.33056551 L15.7408163,0.332457769 C15.9586531,0.114729087 16.2242449,0 16.5082041,0 C16.9537959,0 17.3729388,0.287372537 17.5503673,0.714765875 C17.7197143,1.12309879 17.6260408,1.56148853 17.2994694,1.88734846 L10.2860816,8.8854562 C10.2581633,8.91331374 10.2258367,8.93640618 10.1905714,8.95436696 L8.1124898,9.9913273 C8.06032653,10.0173521 8.00412245,10.0298147 7.94828571,10.0298147 Z M9.28910204,7.80670955 L8.76967347,8.84366989 L9.80889796,8.32500644 L16.7800408,1.36905156 C16.8957551,1.25358938 16.9266122,1.1278639 16.8718776,0.995174027 C16.8094286,0.845989559 16.6533061,0.733093206 16.5082041,0.733093206 C16.4218776,0.733093206 16.3384898,0.772680239 16.2602449,0.850754665 L9.28910204,7.80670955 Z" id="Shape"></path>
                            <path d="M16.0005306,3.03170695 C15.9064898,3.03170695 15.812449,2.99578538 15.740449,2.9243088 L14.7015918,1.88734846 C14.5583265,1.74402874 14.5583265,1.51200474 14.7015918,1.36868501 C14.8452245,1.22573184 15.0777551,1.22573184 15.2213878,1.36868501 L16.2602449,2.40564535 C16.4035102,2.54896508 16.4035102,2.78098908 16.2602449,2.9243088 C16.1886122,2.99615193 16.0945714,3.03170695 16.0005306,3.03170695 Z" id="Shape"></path>
                        </g>
                    </g>
                </g>
            </g>
        </g>
    </g>
</svg>