<?xml version="1.0" encoding="UTF-8"?>
<svg width="24px" height="24px" viewBox="0 0 24 24" version="1.1" xmlns="http://www.w3.org/2000/svg" xmlns:xlink="http://www.w3.org/1999/xlink">
    <!-- Generator: sketchtool 41.2 (35397) - http://www.bohemiancoding.com/sketch -->
    <title>email</title>
    <desc>Created with sketchtool.</desc>
    <defs></defs>
    <g id="Icons" stroke="none" stroke-width="1" fill="none" fill-rule="evenodd">
        <g id="Icon-Set-5" transform="translate(-96.000000, -24.000000)" fill="#000000">
            <g id="Menu-24" transform="translate(96.000000, 24.000000)">
                <g id="email-icon" transform="translate(3.000000, 5.000000)">
                    <g id="Group-2">
                        <path d="M0,0.160364139 L0,13.9516801 L18,13.9516801 L18,0.160364139 L0,0.160364139 Z M17.4,13.3102235 L0.6,13.3102235 L0.6,0.801820694 L17.4,0.801820694 L17.4,13.3102235 Z" id="Shape"></path>
                        <path d="M15.9,2.40546208 L12.9,2.40546208 L12.9,5.61274486 L15.9,5.61274486 L15.9,2.40546208 Z M15.3,4.9712883 L13.5,4.9712883 L13.5,3.04691864 L15.3,3.04691864 L15.3,4.9712883 Z" id="Shape"></path>
                        <path d="M2.4,4.32983175 L8.4,4.32983175 C8.5656,4.32983175 8.7,4.18646621 8.7,4.00910347 C8.7,3.83174073 8.5656,3.68837519 8.4,3.68837519 L2.4,3.68837519 C2.2344,3.68837519 2.1,3.83174073 2.1,4.00910347 C2.1,4.18646621 2.2344,4.32983175 2.4,4.32983175 Z" id="Shape"></path>
                        <path d="M2.4,5.93347313 L8.4,5.93347313 C8.5656,5.93347313 8.7,5.79010759 8.7,5.61274486 C8.7,5.43538212 8.5656,5.29201658 8.4,5.29201658 L2.4,5.29201658 C2.2344,5.29201658 2.1,5.43538212 2.1,5.61274486 C2.1,5.79010759 2.2344,5.93347313 2.4,5.93347313 Z" id="Shape"></path>
                        <path d="M2.4,2.72619036 L4.8,2.72619036 C4.9656,2.72619036 5.1,2.58282482 5.1,2.40546208 C5.1,2.22809934 4.9656,2.0847338 4.8,2.0847338 L2.4,2.0847338 C2.2344,2.0847338 2.1,2.22809934 2.1,2.40546208 C2.1,2.58282482 2.2344,2.72619036 2.4,2.72619036 Z" id="Shape"></path>
                        <path d="M6.9,10.1029407 C6.9,11.1642306 7.7073,12.0273104 8.7,12.0273104 C9.6927,12.0273104 10.5,11.1642306 10.5,10.1029407 C10.5,9.04165087 9.6927,8.17857107 8.7,8.17857107 C7.7073,8.17857107 6.9,9.04165087 6.9,10.1029407 Z M9.9,10.1029407 C9.9,10.8104673 9.3618,11.3858538 8.7,11.3858538 C8.0382,11.3858538 7.5,10.8104673 7.5,10.1029407 C7.5,9.39541416 8.0382,8.82002763 8.7,8.82002763 C9.3618,8.82002763 9.9,9.39541416 9.9,10.1029407 Z" id="Shape"></path>
                        <path d="M11.331,9.34570128 C11.5359,9.08142118 11.8644,9.08142118 12.0693,9.34570128 C12.2874,9.6273007 12.5826,9.78221246 12.9,9.78221246 C13.2174,9.78221246 13.5126,9.6273007 13.731,9.34570128 C13.9359,9.08142118 14.2644,9.08142118 14.4693,9.34570128 C14.6874,9.6273007 14.9826,9.78221246 15.3,9.78221246 C15.6174,9.78221246 15.9126,9.6273007 16.131,9.34570128 C16.2369,9.20907103 16.2192,9.00701222 16.0917,8.89411586 C15.9645,8.78089878 15.7755,8.79982175 15.6693,8.93613127 C15.4644,9.20041137 15.1359,9.20041137 14.931,8.93613127 C14.7126,8.65421111 14.4174,8.49929935 14.1,8.49929935 C13.7826,8.49929935 13.4874,8.65421111 13.269,8.93581054 C13.0641,9.20009064 12.7356,9.20009064 12.5307,8.93581054 C12.3126,8.65421111 12.0174,8.49929935 11.7,8.49929935 C11.3826,8.49929935 11.0874,8.65421111 10.869,8.93581054 C10.7631,9.07244078 10.7808,9.2744996 10.9083,9.38739595 C11.0361,9.50093376 11.2251,9.48201079 11.331,9.34570128 Z" id="Shape"></path>
                        <path d="M11.331,11.2700709 C11.5359,11.0057908 11.8644,11.0057908 12.0693,11.2700709 C12.2874,11.5516704 12.5826,11.7065821 12.9,11.7065821 C13.2174,11.7065821 13.5126,11.5516704 13.731,11.2700709 C13.9359,11.0057908 14.2644,11.0057908 14.4693,11.2700709 C14.6874,11.5516704 14.9826,11.7065821 15.3,11.7065821 C15.6174,11.7065821 15.9126,11.5516704 16.131,11.2700709 C16.2369,11.1334407 16.2192,10.9313819 16.0917,10.8184855 C15.9645,10.7052684 15.7755,10.7241914 15.6693,10.8605009 C15.4644,11.124781 15.1359,11.124781 14.931,10.8605009 C14.7126,10.5785808 14.4174,10.423669 14.1,10.423669 C13.7826,10.423669 13.4874,10.5785808 13.269,10.8601802 C13.0641,11.1244603 12.7356,11.1244603 12.5307,10.8601802 C12.3126,10.5785808 12.0174,10.423669 11.7,10.423669 C11.3826,10.423669 11.0874,10.5785808 10.869,10.8601802 C10.7631,10.9968104 10.7808,11.1988693 10.9083,11.3117656 C11.0361,11.4253034 11.2251,11.4063805 11.331,11.2700709 Z" id="Shape"></path>
                    </g>
                </g>
            </g>
        </g>
    </g>
</svg>