<?xml version="1.0" encoding="UTF-8"?>
<svg width="24px" height="24px" viewBox="0 0 24 24" version="1.1" xmlns="http://www.w3.org/2000/svg" xmlns:xlink="http://www.w3.org/1999/xlink">
    <!-- Generator: sketchtool 41.2 (35397) - http://www.bohemiancoding.com/sketch -->
    <title>filters</title>
    <desc>Created with sketchtool.</desc>
    <defs></defs>
    <g id="Icons" stroke="none" stroke-width="1" fill="none" fill-rule="evenodd">
        <g id="Icon-Set-4" transform="translate(-96.000000, -24.000000)" fill="#000000">
            <g id="Menu-24" transform="translate(96.000000, 24.000000)">
                <g id="filters-icon" transform="translate(3.000000, 2.995738)">
                    <g id="Layer_1">
                        <path d="M16.9174193,0 L0.383467036,0 C0.18542152,0 0.0248260181,0.160210526 0.0248260181,0.357859649 L0.0248260181,2.44217544 C0.0248260181,2.54049123 0.0645968771,2.62947368 0.12891244,2.69417544 L0.12891244,2.69424561 L0.129756383,2.69515789 C0.129791548,2.69522807 0.129861876,2.69526316 0.129932205,2.69533333 L7.00540297,9.60817544 L7.00540297,15.5533684 C7.00540297,15.6621053 7.05494951,15.7649123 7.14001203,15.8328421 L9.71274002,17.8865263 C9.77761821,17.9383158 9.85687862,17.9649474 9.93684231,17.9649474 C9.98962397,17.9649474 10.0427221,17.9532982 10.092128,17.929614 C10.2163987,17.87 10.295413,17.7446316 10.295413,17.6070526 L10.295413,9.60817544 L17.1709541,2.69529825 C17.1710244,2.69522807 17.1710596,2.69519298 17.1711299,2.69512281 L17.1719739,2.69421053 L17.1719739,2.69414035 C17.2362894,2.62947368 17.2760603,2.54042105 17.2760603,2.44214035 L17.2760603,0.357859649 C17.2760603,0.160210526 17.1154648,0 16.9174193,0 Z M9.57816612,16.8624561 L7.72272017,15.3813684 L7.72272017,9.81859649 L9.57816612,9.81859649 L9.57816612,16.8624561 Z M9.78746423,9.10287719 L7.51342207,9.10287719 L1.24467668,2.80007018 L16.0562096,2.80007018 L9.78746423,9.10287719 Z M16.5587782,2.08431579 L0.742108053,2.08431579 L0.742108053,0.715719298 L16.5587782,0.715719298 L16.5587782,2.08431579 Z" id="Shape"></path>
                        <path d="M6.69145582,6.70905263 L6.53704924,6.55498246 C6.3970952,6.41526316 6.16996878,6.41519298 6.02983892,6.55498246 C5.88974422,6.69473684 5.88974422,6.92129825 6.02980375,7.06108772 L6.1842455,7.21515789 C6.25425768,7.28505263 6.34607175,7.31996491 6.43785066,7.31996491 C6.52962956,7.31996491 6.62140847,7.28505263 6.69142065,7.21515789 C6.83151535,7.07536842 6.83151535,6.84880702 6.69145582,6.70905263 Z" id="Shape"></path>
                        <path d="M5.74824295,5.76782456 L3.27837063,3.30333333 C3.13827593,3.16361404 2.91125501,3.16361404 2.77112515,3.30333333 C2.63110078,3.44312281 2.63110078,3.6697193 2.77116031,3.80947368 L5.24103263,6.27396491 C5.31107998,6.34382456 5.40285889,6.37877193 5.49463779,6.37877193 C5.5864167,6.37877193 5.6781956,6.34382456 5.74824295,6.27396491 C5.88826732,6.13421053 5.88826732,5.90757895 5.74824295,5.76782456 Z" id="Shape"></path>
                    </g>
                </g>
            </g>
        </g>
    </g>
</svg>