<?xml version="1.0" encoding="UTF-8"?>
<svg width="24px" height="24px" viewBox="0 0 24 24" version="1.1" xmlns="http://www.w3.org/2000/svg" xmlns:xlink="http://www.w3.org/1999/xlink">
    <!-- Generator: sketchtool 41.2 (35397) - http://www.bohemiancoding.com/sketch -->
    <title>heart</title>
    <desc>Created with sketchtool.</desc>
    <defs></defs>
    <g id="Icons" stroke="none" stroke-width="1" fill="none" fill-rule="evenodd">
        <g id="Icon-Set-2" transform="translate(-168.000000, -25.000000)" fill="#000000">
            <g id="Add-24" transform="translate(168.000000, 24.000000)">
                <g id="heart-icon" transform="translate(4.000000, 4.000000)">
                    <g id="Layer_1">
                        <path d="M9.00116667,16.6280269 C8.923,16.6280269 8.84483333,16.6007531 8.78233333,16.5462055 C8.5115,16.3107197 2.13666667,10.7343953 0.514833333,6.41017038 C0.2655,5.8347601 0.139,5.22326194 0.139,4.59263887 C0.139,2.06316186 2.2015,0.00515541009 4.73666667,0.00515541009 C6.67066667,0.00515541009 8.32966667,1.20270728 9.00783333,2.89368179 C9.69383333,1.21967024 11.3443333,0.0370856919 13.266,0.0370856919 C15.8013333,0.0370856919 17.864,2.09492584 17.864,4.62456915 C17.864,4.7158698 17.8605,4.80633894 17.8551667,4.89647546 C17.841,8.99619061 9.57283333,16.2395418 9.22033333,16.5462055 C9.1575,16.6007531 9.07933333,16.6280269 9.00116667,16.6280269 Z M4.7365,0.670369615 C2.569,0.670369615 0.8055,2.43002749 0.8055,4.59263887 C0.8055,5.13445584 0.9145,5.65947615 1.1295,6.1532314 C1.132,6.15855311 1.134,6.16404113 1.13616667,6.16952914 C2.531,9.90071562 7.8525,14.8183116 9.001,15.8502252 C10.3255,14.6614874 17.1881667,8.33446878 17.1881667,4.88599834 C17.1881667,4.87901359 17.1883333,4.87219514 17.1888333,4.8653767 C17.1936667,4.78571729 17.197,4.70539268 17.197,4.62456915 C17.197,2.46179147 15.4335,0.702299897 13.2656667,0.702299897 C11.0978333,0.702299897 9.3345,2.46179147 9.3345,4.62456915 C9.3345,4.64419297 9.33533333,4.66331788 9.336,4.6827754 L9.33766667,4.73266646 C9.3395,4.82230408 9.30533333,4.90861562 9.2425,4.97247618 C9.11683333,5.10069622 8.88716667,5.10019731 8.76183333,4.97147836 C8.69916667,4.90695258 8.66183333,4.81980952 8.66466667,4.73000561 L8.66566667,4.69940575 C8.66683333,4.66381679 8.668,4.62839414 8.668,4.59280518 C8.66783333,2.42986119 6.90433333,0.670369615 4.7365,0.670369615 Z" id="Shape"></path>
                    </g>
                </g>
            </g>
        </g>
    </g>
</svg>