<?xml version="1.0" encoding="UTF-8"?>
<svg width="24px" height="24px" viewBox="0 0 24 24" version="1.1" xmlns="http://www.w3.org/2000/svg" xmlns:xlink="http://www.w3.org/1999/xlink">
    <!-- Generator: sketchtool 41.2 (35397) - http://www.bohemiancoding.com/sketch -->
    <title>home</title>
    <desc>Created with sketchtool.</desc>
    <defs></defs>
    <g id="Icons" stroke="none" stroke-width="1" fill="none" fill-rule="evenodd">
        <g id="Icon-Set-3" transform="translate(-24.000000, -24.000000)" fill="#000000">
            <g id="profile" transform="translate(24.000000, 24.000000)">
                <g id="home-icon" transform="translate(3.000000, 6.000000)">
                    <g id="Layer_1">
                        <path d="M14.5817108,17.9947573 L10.3776777,17.9947573 C10.1843244,17.9947573 10.0274,17.8381748 10.0274,17.6452427 L10.0274,11.9691262 L6.84179938,11.9691262 L6.84179938,17.645068 C6.84179938,17.838 6.68487497,17.9945825 6.49152167,17.9945825 L2.28766373,17.9945825 C2.09431043,17.9945825 1.93738602,17.838 1.93738602,17.645068 L1.93738602,8.75324272 C1.93738602,8.66201942 1.97311434,8.57446602 2.03686489,8.50928155 L8.2008769,2.20368932 C8.26672911,2.13623301 8.35727589,2.09813592 8.45167574,2.09813592 L8.45220115,2.09813592 C8.54677614,2.09813592 8.63732292,2.13658252 8.70317513,2.20421359 L14.8332102,8.50963107 C14.8966105,8.57481553 14.9319885,8.66219417 14.9319885,8.75306796 L14.9319885,17.645068 C14.9319885,17.8381748 14.7750641,17.9947573 14.5817108,17.9947573 Z M10.7279554,17.2957282 L14.2314331,17.2957282 L14.2314331,8.89479612 L8.45097518,2.94902913 L2.63794144,8.89549515 L2.63794144,17.2955534 L6.1414191,17.2955534 L6.1414191,11.6196117 C6.1414191,11.4266796 6.29834351,11.2700971 6.49169681,11.2700971 L10.3776777,11.2700971 C10.571031,11.2700971 10.7279554,11.4266796 10.7279554,11.6196117 L10.7279554,17.2957282 Z" id="Shape"></path>
                        <path d="M0.357108126,9.06343689 C0.269538698,9.06343689 0.181969271,9.03093204 0.114015395,8.96557282 C-0.0252199952,8.83170874 -0.0294233277,8.61029126 0.104733035,8.47135922 L8.16917676,0.119009709 C8.23485384,0.0508543689 8.32557576,0.012407767 8.42015074,0.0120582524 C8.52365781,0.0115339806 8.60562279,0.049631068 8.67200042,0.117262136 L16.7178794,8.32928155 C16.8530866,8.46733981 16.8506347,8.68858252 16.7124501,8.82349515 C16.5739153,8.95840777 16.3521895,8.95578641 16.2171574,8.81790291 L8.42347838,0.863475728 L0.609308077,8.95631068 C0.540653646,9.02761165 0.448880886,9.06343689 0.357108126,9.06343689 Z" id="Shape"></path>
                        <path d="M3.57283265,5.73291262 C3.37947935,5.73291262 3.22255494,5.5763301 3.22255494,5.38339806 L3.22255494,1.39805825 C3.22255494,1.20512621 3.37947935,1.04854369 3.57283265,1.04854369 C3.76618594,1.04854369 3.92311036,1.20512621 3.92311036,1.39805825 L3.92311036,5.38339806 C3.92311036,5.5763301 3.76636108,5.73291262 3.57283265,5.73291262 Z" id="Shape"></path>
                    </g>
                </g>
            </g>
        </g>
    </g>
</svg>