<?xml version="1.0" encoding="UTF-8"?>
<svg width="24px" height="24px" viewBox="0 0 24 24" version="1.1" xmlns="http://www.w3.org/2000/svg" xmlns:xlink="http://www.w3.org/1999/xlink">
    <!-- Generator: sketchtool 41.2 (35397) - http://www.bohemiancoding.com/sketch -->
    <title>howitworks</title>
    <desc>Created with sketchtool.</desc>
    <defs></defs>
    <g id="Icons" stroke="none" stroke-width="1" fill="none" fill-rule="evenodd">
        <g id="Icon-Set-3" transform="translate(-24.000000, -72.000000)" fill="#000000">
            <g id="Star-24" transform="translate(24.000000, 72.000000)">
                <g id="howitworks-icon" transform="translate(3.000000, 3.000000)">
                    <g id="Layer_1">
                        <path d="M17.5905965,7.00225479e-05 C17.5089123,7.00225479e-05 17.4332632,0.0266085682 17.3718596,0.0711779199 L17.3712982,0.0708978297 L14.0182456,2.48884643 L13.3060702,5.14175569 L3.18378947,2.43527918 L0.471614035,12.5357516 C0.271508772,12.4826745 0.0664561404,12.6008376 0.0127368421,12.7999817 C-0.0404561404,12.9991258 0.0779649123,13.2036967 0.27754386,13.257299 L8.61252632,15.4859766 C8.51659649,16.5505294 9.19807018,17.5625653 10.268807,17.8492376 C10.4634386,17.9006692 10.6591579,17.9258423 10.8510526,17.9258423 C11.8428421,17.9258423 12.7501754,17.2655647 13.018807,16.2644523 C13.3061053,15.1960483 12.7682456,14.1014208 11.7956842,13.6522962 L14.0292281,5.33519298 L14.6728772,2.93856625 L17.8099298,0.676242756 L17.8099298,0.675962666 C17.9036491,0.608110817 17.9650526,0.498175417 17.9650526,0.373430248 C17.9650526,0.167178833 17.7972982,7.00225479e-05 17.5905965,7.00225479e-05 Z M7.69308772,4.4147816 L9.13884211,4.80127105 L8.58070175,6.88062562 L8.23421053,6.57427698 L7.95459649,6.32646718 L7.58782456,6.40142632 L7.13442105,6.49389109 L7.69308772,4.4147816 Z M12.1465263,14.9378401 C12.3461053,15.2835765 12.3992632,15.6856459 12.2956491,16.0713301 C12.1207719,16.7234151 11.5264561,17.1785617 10.8510175,17.1785617 C10.7210877,17.1785617 10.5900351,17.1616162 10.4623158,17.1271301 C9.66515789,16.9143316 9.19038596,16.0932122 9.40364912,15.297791 C9.57908772,14.6457061 10.1728421,14.1905595 10.8482807,14.1905595 C10.9787719,14.1905595 11.1097895,14.2075049 11.2375439,14.2419911 C11.6235088,14.3448542 11.9464211,14.5921038 12.1465263,14.9378401 Z M11.073614,13.4547976 C10.9984912,13.4471301 10.9234035,13.4433139 10.8482807,13.4433139 C9.97438596,13.4433139 9.16624561,13.9564391 8.80277193,14.7633439 L1.19421053,12.7288388 L3.71284211,3.35019379 L6.96996491,4.22081914 L6.29178947,6.74656746 L6.91789474,7.30044581 L7.73807018,7.13305691 L8.36417544,7.68721535 L9.18382456,7.51982645 L9.862,4.99407814 L13.1125614,5.86305796 L11.073614,13.4547976 Z" id="Shape"></path>
                        <path d="M10.955193,15.3388242 C10.755614,15.2857472 10.5505965,15.4039102 10.4968772,15.6030543 C10.4436842,15.8021985 10.5621053,16.0067693 10.7616842,16.0603716 C10.9612632,16.1139738 11.1662807,15.9952856 11.22,15.7961415 C11.2737193,15.5969974 11.1552982,15.3919013 10.955193,15.3388242 Z" id="Shape"></path>
                    </g>
                </g>
            </g>
        </g>
    </g>
</svg>