<?xml version="1.0" encoding="UTF-8"?>
<svg width="24px" height="24px" viewBox="0 0 24 24" version="1.1" xmlns="http://www.w3.org/2000/svg" xmlns:xlink="http://www.w3.org/1999/xlink">
    <!-- Generator: sketchtool 41.2 (35397) - http://www.bohemiancoding.com/sketch -->
    <title>instruction</title>
    <desc>Created with sketchtool.</desc>
    <defs></defs>
    <g id="Icons" stroke="none" stroke-width="1" fill="none" fill-rule="evenodd">
        <g id="Icon-Set-2" transform="translate(-168.000000, -72.000000)" fill="#000000">
            <g id="Edit-24" transform="translate(168.000000, 72.000000)">
                <g id="instruction-icon" transform="translate(3.171916, 3.825106)">
                    <g id="Capa_1">
                        <g id="Group">
                            <path d="M17.712766,0.0191072165 L0.287234043,0.0191072165 C0.128565957,0.0191072165 0,0.147393068 0,0.305715464 L0,15.2093444 C0,15.3676668 0.128565957,15.4959526 0.287234043,15.4959526 L17.712766,15.4959526 C17.871434,15.4959526 18,15.3676668 18,15.2093444 L18,0.305715464 C18,0.147393068 17.871434,0.0191072165 17.712766,0.0191072165 Z M17.4255319,0.592323712 L17.4255319,2.3119732 L0.574468085,2.3119732 L0.574468085,0.592323712 L17.4255319,0.592323712 Z M0.574468085,14.9227361 L0.574468085,2.8851897 L17.4255319,2.8851897 L17.4255319,14.9227361 L0.574468085,14.9227361 Z" id="Shape"></path>
                            <ellipse id="Oval" cx="15.1276596" cy="1.45214846" rx="0.287234043" ry="0.286608248"></ellipse>
                            <ellipse id="Oval" cx="16.4680851" cy="1.45214846" rx="0.287234043" ry="0.286608248"></ellipse>
                            <ellipse id="Oval" cx="13.787234" cy="1.45214846" rx="0.287234043" ry="0.286608248"></ellipse>
                            <path d="M12.7340426,6.61109692 L15.0319149,6.61109692 C15.190583,6.61109692 15.3191489,6.48281107 15.3191489,6.32448867 C15.3191489,6.16616627 15.190583,6.03788042 15.0319149,6.03788042 L12.7340426,6.03788042 C12.5753745,6.03788042 12.4468085,6.16616627 12.4468085,6.32448867 C12.4468085,6.48281107 12.5753745,6.61109692 12.7340426,6.61109692 Z" id="Shape"></path>
                            <path d="M12.7340426,8.33074641 L15.0319149,8.33074641 C15.190583,8.33074641 15.3191489,8.20246055 15.3191489,8.04413816 C15.3191489,7.88581576 15.190583,7.75752991 15.0319149,7.75752991 L12.7340426,7.75752991 C12.5753745,7.75752991 12.4468085,7.88581576 12.4468085,8.04413816 C12.4468085,8.20246055 12.5753745,8.33074641 12.7340426,8.33074641 Z" id="Shape"></path>
                            <path d="M12.7340426,10.0503959 L15.0319149,10.0503959 C15.190583,10.0503959 15.3191489,9.92211004 15.3191489,9.76378765 C15.3191489,9.60546525 15.190583,9.4771794 15.0319149,9.4771794 L12.7340426,9.4771794 C12.5753745,9.4771794 12.4468085,9.60546525 12.4468085,9.76378765 C12.4468085,9.92211004 12.5753745,10.0503959 12.7340426,10.0503959 Z" id="Shape"></path>
                            <path d="M12.7340426,11.7700454 L15.0319149,11.7700454 C15.190583,11.7700454 15.3191489,11.6417595 15.3191489,11.4834371 C15.3191489,11.3251147 15.190583,11.1968289 15.0319149,11.1968289 L12.7340426,11.1968289 C12.5753745,11.1968289 12.4468085,11.3251147 12.4468085,11.4834371 C12.4468085,11.6417595 12.5753745,11.7700454 12.7340426,11.7700454 Z" id="Shape"></path>
                            <path d="M5.01920426,6.74943317 C4.93452766,6.80163408 4.88297872,6.89388372 4.88297872,6.99324125 L4.88297872,10.8146846 C4.88297872,10.9140421 4.93452766,11.0062917 5.01920426,11.0584926 C5.06535319,11.0869242 5.11770638,11.1012928 5.17021277,11.1012928 C5.21410213,11.1012928 5.25814468,11.0912424 5.29866383,11.071027 L9.12845106,9.16030532 C9.22572766,9.11173477 9.28723404,9.01253011 9.28723404,8.9039629 C9.28723404,8.7953957 9.22576596,8.69615282 9.12845106,8.64762049 L5.29866383,6.73689883 C5.20962128,6.69245545 5.10391915,6.69719404 5.01920426,6.74943317 Z M5.45744681,7.45701161 L8.35770638,8.9039629 L5.45744681,10.3509142 L5.45744681,7.45701161 Z" id="Shape"></path>
                            <path d="M7.85106383,5.36912784 L2.96808511,5.36912784 C2.80941702,5.36912784 2.68085106,5.4974137 2.68085106,5.65573609 L2.68085106,12.1521897 C2.68085106,12.3105121 2.80941702,12.438798 2.96808511,12.438798 L11.2021277,12.438798 C11.3607957,12.438798 11.4893617,12.3105121 11.4893617,12.1521897 L11.4893617,5.65573609 C11.4893617,5.4974137 11.3607957,5.36912784 11.2021277,5.36912784 L9,5.36912784 C8.84133191,5.36912784 8.71276596,5.4974137 8.71276596,5.65573609 C8.71276596,5.81405849 8.84133191,5.94234434 9,5.94234434 L10.9148936,5.94234434 L10.9148936,11.8655815 L3.25531915,11.8655815 L3.25531915,5.94234434 L7.85106383,5.94234434 C8.00973191,5.94234434 8.13829787,5.81405849 8.13829787,5.65573609 C8.13829787,5.4974137 8.00973191,5.36912784 7.85106383,5.36912784 Z" id="Shape"></path>
                            <path d="M16.5638298,3.45840619 L1.43617021,3.45840619 C1.27750213,3.45840619 1.14893617,3.58669204 1.14893617,3.74501444 L1.14893617,14.0629114 C1.14893617,14.2212338 1.27750213,14.3495196 1.43617021,14.3495196 L13.8829787,14.3495196 C14.0416468,14.3495196 14.1702128,14.2212338 14.1702128,14.0629114 C14.1702128,13.904589 14.0416468,13.7763031 13.8829787,13.7763031 L1.72340426,13.7763031 L1.72340426,4.03162269 L16.2765957,4.03162269 L16.2765957,13.7763031 L15.0319149,13.7763031 C14.8732468,13.7763031 14.7446809,13.904589 14.7446809,14.0629114 C14.7446809,14.2212338 14.8732468,14.3495196 15.0319149,14.3495196 L16.5638298,14.3495196 C16.7224979,14.3495196 16.8510638,14.2212338 16.8510638,14.0629114 L16.8510638,3.74501444 C16.8510638,3.58669204 16.7224979,3.45840619 16.5638298,3.45840619 Z" id="Shape"></path>
                        </g>
                    </g>
                </g>
            </g>
        </g>
    </g>
</svg>