<?xml version="1.0" encoding="UTF-8"?>
<svg width="24px" height="24px" viewBox="0 0 24 24" version="1.1" xmlns="http://www.w3.org/2000/svg" xmlns:xlink="http://www.w3.org/1999/xlink">
    <!-- Generator: sketchtool 41.2 (35397) - http://www.bohemiancoding.com/sketch -->
    <title>invite</title>
    <desc>Created with sketchtool.</desc>
    <defs></defs>
    <g id="Icons" stroke="none" stroke-width="1" fill="none" fill-rule="evenodd">
        <g id="Icon-Set-1" transform="translate(-240.000000, -72.000000)" fill="#000000">
            <g id="Check-24" transform="translate(240.000000, 72.000000)">
                <g id="invite-icon" transform="translate(3.000000, 3.000000)">
                    <g id="Layer_1">
                        <path d="M17.3992852,7.03480392 L15.7496836,5.80210483 L15.7496836,2.26842591 L13.4997539,0.000105238966 L12.7493789,0.000105238966 L2.24992969,0.000105238966 L2.24992969,5.80213991 L0.600363281,7.034839 C0.270210938,7.28148406 0,7.82027249 0,8.23189716 L0,17.2121486 C0,17.6237733 0.337253906,17.9602924 0.749777344,17.9602924 L17.2493086,17.9602924 C17.6617969,17.9602924 17.9996484,17.6237733 17.9996484,17.2121486 L17.9996484,8.23186208 C17.9996484,7.82027249 17.7294023,7.28144898 17.3992852,7.03480392 Z M15.7497188,6.73718813 L16.9499531,7.63389428 C16.9829297,7.65855528 17.0169609,7.69528367 17.0499375,7.73913324 L15.7497188,8.59279666 L15.7497188,6.73718813 Z M13.4992266,1.06372039 L14.6708789,2.24513302 L13.4992266,2.24513302 L13.4992266,1.06372039 Z M2.99974219,0.748249048 L12.7493789,0.748249048 L12.7493789,2.99331191 L14.9999062,2.99331191 L14.9999062,9.0849993 L10.0077891,12.3621758 C9.88417969,12.2498156 9.7408125,12.1580122 9.58429688,12.0916766 C9.64525781,11.6825075 9.62110547,11.1694675 9.31953516,10.678633 C9.05421094,10.2478197 9.19044141,9.90088192 9.29921484,9.7285005 L9.37448438,9.7285005 C9.58158984,9.7285005 9.74963672,9.5610653 9.74963672,9.35441105 C9.74963672,9.1477568 9.58158984,8.98007605 9.37448438,8.98007605 L9.00151172,8.98007605 C10.6576523,8.97926922 11.9996016,7.47193151 11.9996016,5.61246422 C11.9995664,3.75271629 10.6565273,2.24488746 8.99982422,2.24488746 C7.34312109,2.24488746 5.99948438,3.75275137 5.99948438,5.6124993 C5.99948438,7.47196659 7.34203125,8.97926922 8.99817188,8.98011113 L8.62463672,8.98011113 C8.41753125,8.98011113 8.24944922,9.14782696 8.24944922,9.35444613 C8.24944922,9.51423396 8.35052344,9.65044826 8.49171094,9.70387458 C8.37305859,10.0776483 8.36592188,10.5597129 8.68011328,11.0702973 C8.86798828,11.3753149 8.88169922,11.7091329 8.84162109,11.9818071 C8.51698828,12.0157993 8.22255469,12.153101 7.99347656,12.3602815 L2.99974219,9.08391183 L2.99974219,0.748249048 Z M9.74960156,13.4701667 C9.74960156,13.8829139 9.41291016,14.2185911 8.99926172,14.2185911 C8.58617578,14.2185911 8.24944922,13.8829139 8.24944922,13.4701667 C8.24944922,13.0577001 8.58617578,12.7220229 8.99926172,12.7220229 C9.41291016,12.7220229 9.74960156,13.0577001 9.74960156,13.4701667 Z M6.74985937,5.61246422 C6.74985937,4.16819973 7.75894922,2.99331191 8.99982422,2.99331191 C10.2401367,2.99331191 11.2497539,4.16816465 11.2497539,5.61246422 C11.2497539,7.05676379 10.2401367,8.23186208 8.99982422,8.23186208 C7.75894922,8.23186208 6.74985937,7.05672871 6.74985937,5.61246422 Z M1.04969531,7.63389428 L2.24992969,6.73718813 L2.24992969,8.59198982 L0.949746094,7.73913324 C0.9826875,7.69528367 1.01675391,7.65855528 1.04969531,7.63389428 Z M17.2493086,17.2107805 C17.2493086,17.2113067 17.2487813,17.2115523 17.2482187,17.2121135 L0.751429688,17.2121135 C0.750867188,17.2115523 0.750339844,17.2113067 0.749777344,17.2107454 L0.749777344,8.50348385 L7.58042578,12.9850852 C7.52825391,13.1374712 7.49967188,13.3005215 7.49967188,13.4701667 C7.49967188,14.2969591 8.17091016,14.9670507 8.99926172,14.9670507 C9.82761328,14.9670507 10.4994141,14.2969591 10.4994141,13.4701667 C10.4994141,13.3013634 10.4708672,13.1393655 10.4192227,12.9881021 L17.2493086,8.50376449 L17.2493086,17.2107805 L17.2493086,17.2107805 Z" id="Shape"></path>
                        <path d="M6.37467188,15.7152296 L1.87477734,15.7152296 C1.66767188,15.7152296 1.49958984,15.8829454 1.49958984,16.0895996 C1.49958984,16.2962539 1.66767188,16.4636891 1.87477734,16.4636891 L6.37467188,16.4636891 C6.58177734,16.4636891 6.74985938,16.2962539 6.74985938,16.0895996 C6.74985938,15.8829454 6.58177734,15.7152296 6.37467188,15.7152296 Z" id="Shape"></path>
                        <path d="M3.37492969,14.2185911 L1.87477734,14.2185911 C1.66767188,14.2185911 1.49958984,14.3860263 1.49958984,14.5926806 C1.49958984,14.7996155 1.66767188,14.9670507 1.87477734,14.9670507 L3.37492969,14.9670507 C3.58203516,14.9670507 3.74955469,14.7996155 3.74955469,14.5926806 C3.74955469,14.3860263 3.582,14.2185911 3.37492969,14.2185911 Z" id="Shape"></path>
                        <path d="M8.99926172,3.36740136 C7.96433203,3.36768199 7.12501172,4.37236332 7.12448438,5.61190294 L7.12448438,5.61246422 C7.12448438,5.81911847 7.29256641,5.9868343 7.49967188,5.9868343 C7.70677734,5.9868343 7.87482422,5.81911847 7.87482422,5.61246422 C7.87482422,5.19368329 8.01161719,4.78974106 8.25001172,4.50419267 C8.45929688,4.25396949 8.72518359,4.11586088 8.99926172,4.11586088 C9.20636719,4.11586088 9.37444922,3.94842569 9.37444922,3.74177144 C9.37444922,3.53511719 9.20636719,3.36740136 8.99926172,3.36740136 Z" id="Shape"></path>
                    </g>
                </g>
            </g>
        </g>
    </g>
</svg>