<?xml version="1.0" encoding="UTF-8"?>
<svg width="24px" height="24px" viewBox="0 0 24 24" version="1.1" xmlns="http://www.w3.org/2000/svg" xmlns:xlink="http://www.w3.org/1999/xlink">
    <!-- Generator: sketchtool 41.2 (35397) - http://www.bohemiancoding.com/sketch -->
    <title>layout</title>
    <desc>Created with sketchtool.</desc>
    <defs></defs>
    <g id="Icons" stroke="none" stroke-width="1" fill="none" fill-rule="evenodd">
        <g id="Icon-Set-1" transform="translate(-96.000000, -72.000000)" fill="#000000">
            <g id="Search-24" transform="translate(96.000000, 72.000000)">
                <g id="layout-icon" transform="translate(3.000000, 5.000000)">
                    <g id="Layer_1">
                        <g id="Group">
                            <path d="M16.2,0 L1.8,0 C0.81,0 0,0.808235259 0,1.79607835 L0,11.8541171 C0,12.8419602 0.81,13.6501955 1.8,13.6501955 L16.2,13.6501955 C17.19,13.6501955 18,12.8419602 18,11.8541171 L18,1.79607835 C18,0.808235259 17.19,0 16.2,0 Z M11.52,12.9317641 L1.8,12.9317641 C1.206,12.9317641 0.72,12.446823 0.72,11.8541171 L0.72,1.79607835 C0.72,1.2033725 1.206,0.718431341 1.8,0.718431341 L11.52,0.718431341 L11.52,12.9317641 Z M17.28,11.8541171 C17.28,12.446823 16.794,12.9317641 16.2,12.9317641 L12.24,12.9317641 L12.24,0.718431341 L16.2,0.718431341 C16.794,0.718431341 17.28,1.2033725 17.28,1.79607835 L17.28,11.8541171 Z" id="Shape"></path>
                            <path d="M2.16,2.69411753 L2.52,2.69411753 C2.718,2.69411753 2.88,2.53247048 2.88,2.33490186 C2.88,2.13733324 2.718,1.97568619 2.52,1.97568619 L2.16,1.97568619 C1.962,1.97568619 1.8,2.13733324 1.8,2.33490186 C1.8,2.53247048 1.962,2.69411753 2.16,2.69411753 Z" id="Shape"></path>
                            <path d="M3.78,2.69411753 L4.14,2.69411753 C4.338,2.69411753 4.5,2.53247048 4.5,2.33490186 C4.5,2.13733324 4.338,1.97568619 4.14,1.97568619 L3.78,1.97568619 C3.582,1.97568619 3.42,2.13733324 3.42,2.33490186 C3.42,2.53247048 3.582,2.69411753 3.78,2.69411753 Z" id="Shape"></path>
                            <path d="M5.4,2.69411753 L5.76,2.69411753 C5.958,2.69411753 6.12,2.53247048 6.12,2.33490186 C6.12,2.13733324 5.958,1.97568619 5.76,1.97568619 L5.4,1.97568619 C5.202,1.97568619 5.04,2.13733324 5.04,2.33490186 C5.04,2.53247048 5.202,2.69411753 5.4,2.69411753 Z" id="Shape"></path>
                            <path d="M15.3,3.0533332 L14.04,3.0533332 C13.842,3.0533332 13.68,3.21498025 13.68,3.41254887 C13.68,3.61011749 13.842,3.77176454 14.04,3.77176454 L15.3,3.77176454 C15.498,3.77176454 15.66,3.61011749 15.66,3.41254887 C15.66,3.21498025 15.498,3.0533332 15.3,3.0533332 Z" id="Shape"></path>
                            <path d="M15.3,4.84941155 L14.04,4.84941155 C13.842,4.84941155 13.68,5.01105861 13.68,5.20862723 C13.68,5.40619584 13.842,5.5678429 14.04,5.5678429 L15.3,5.5678429 C15.498,5.5678429 15.66,5.40619584 15.66,5.20862723 C15.66,5.01105861 15.498,4.84941155 15.3,4.84941155 Z" id="Shape"></path>
                            <path d="M15.3,6.64548991 L14.04,6.64548991 C13.842,6.64548991 13.68,6.80713696 13.68,7.00470558 C13.68,7.2022742 13.842,7.36392125 14.04,7.36392125 L15.3,7.36392125 C15.498,7.36392125 15.66,7.2022742 15.66,7.00470558 C15.66,6.80713696 15.498,6.64548991 15.3,6.64548991 Z" id="Shape"></path>
                        </g>
                    </g>
                </g>
            </g>
        </g>
    </g>
</svg>