<?xml version="1.0" encoding="UTF-8"?>
<svg width="24px" height="24px" viewBox="0 0 24 24" version="1.1" xmlns="http://www.w3.org/2000/svg" xmlns:xlink="http://www.w3.org/1999/xlink">
    <!-- Generator: sketchtool 41.2 (35397) - http://www.bohemiancoding.com/sketch -->
    <title>listings</title>
    <desc>Created with sketchtool.</desc>
    <defs></defs>
    <g id="Icons" stroke="none" stroke-width="1" fill="none" fill-rule="evenodd">
        <g id="Icon-Set-1" transform="translate(-168.000000, -72.000000)" fill="#030104">
            <g id="Edit-24" transform="translate(168.000000, 72.000000)">
                <g id="wardrobe-icon" transform="translate(3.000000, 4.000000)">
                    <g id="Capa_1">
                        <g id="Group">
                            <path d="M17.6644068,8.26832386 L14.5348475,4.35999687 C14.367661,4.15056953 14.0714237,3.99866097 13.8304068,3.99866097 L13.1366441,3.99866097 C13.1073559,3.99866097 13.0762373,4.00087323 13.0420678,4.00566646 L13.0417627,3.34530669 C13.0521356,3.07135509 12.9035593,2.97844014 12.8568814,2.95594883 C12.8248475,2.94083171 12.7894576,2.9330888 12.754678,2.9330888 C12.6903051,2.9330888 12.5948136,2.96000464 12.5042034,3.08794704 L12.3818644,3.26124078 L10.1608475,0.485959904 C9.99305085,0.277269991 9.69681356,0.125361432 9.45579661,0.125361432 L8.38891525,0.125361432 C8.09938983,0.125361432 7.84922034,0.398206902 7.80681356,0.759542794 C7.68783051,1.77902621 7.10298305,3.29184372 6.53979661,3.29184372 C5.97661017,3.29184372 5.3920678,1.77902621 5.27308475,0.759542794 C5.23098305,0.397838192 4.98050847,0.125361432 4.69067797,0.125361432 L3.99691525,0.125361432 C3.75620339,0.125361432 3.4599661,0.277269991 3.29277966,0.486328614 L0.164135593,4.39465561 C-0.0466779661,4.65828333 -0.0555254237,5.0808251 0.144610169,5.35662025 L1.44610169,7.15039486 C1.54769492,7.2908734 1.68681356,7.37051479 1.84332203,7.37420189 C2.00044068,7.36793381 2.13559322,7.29714148 2.23474576,7.16993649 L3.78274576,5.20102459 L3.78274576,12.4447031 C3.78274576,12.8193126 4.03444068,13.1231297 4.34379661,13.1231297 L8.15735593,13.1231297 L8.15735593,15.2008111 C8.15735593,15.5374434 8.35657627,15.8733383 8.62077966,15.9832139 L10.7612542,16.8611126 C10.7749831,16.8666433 11.0962373,16.9967979 11.2557966,16.9967979 C11.422678,16.9967979 11.7427119,16.8500513 11.7558305,16.8437832 L13.5951864,15.9920629 C13.8520678,15.8733383 14.0457966,15.5326501 14.0457966,15.2008111 L14.0479322,8.84203677 L16.1951186,10.3537482 C16.282678,10.414954 16.3882373,10.4481379 16.4989831,10.4481379 C16.6884407,10.4481379 16.8690508,10.355223 16.9822373,10.1981525 L17.6842373,9.2302885 C17.8840678,8.95486206 17.8755254,8.53158287 17.6644068,8.26832386 Z M8.15674576,12.5114396 L8.15674576,12.5114396 L4.34288136,12.5114396 C4.31237288,12.5114396 4.28766102,12.4819428 4.28766102,12.4443344 L4.28766102,4.80797963 C4.28766102,4.4816712 4.13267797,4.37179559 4.06586441,4.33971781 C4.02742373,4.32128231 3.98684746,4.31206455 3.94566102,4.31206455 C3.87152542,4.31206455 3.7580339,4.34414233 3.63905085,4.49531347 L1.86650847,6.74960699 C1.8640678,6.75292538 1.85888136,6.76029958 1.8259322,6.74813215 L0.524135593,4.95435754 C0.498813559,4.91896137 0.500033898,4.85369968 0.527186441,4.82014706 L3.65552542,0.911451353 C3.726,0.823329641 3.89471186,0.737051479 3.996,0.737051479 L4.68976271,0.737051479 C4.72271186,0.737051479 4.76389831,0.78129669 4.77152542,0.845083536 C4.92132203,2.12745724 5.61905085,3.90353377 6.53918644,3.90353377 C7.45962712,3.90353377 8.15735593,2.12745724 8.30715254,0.845083536 C8.31477966,0.78055927 8.35566102,0.737420189 8.38861017,0.737420189 L9.45518644,0.737420189 C9.55708475,0.737420189 9.72610169,0.823698351 9.79657627,0.911820063 L12.0511525,3.72876518 L11.0962373,5.077138 L9.62084746,3.08979059 C9.46830508,2.87262034 9.32186441,2.93050783 9.26633898,2.95705496 C9.22057627,2.97880885 9.07138983,3.07209251 9.08267797,3.34604411 L9.10769492,4.00050452 C9.09305085,3.9997671 9.07840678,3.99939839 9.06437288,3.99939839 L8.37152542,3.99939839 C8.12989831,3.99939839 7.83335593,4.15130695 7.66677966,4.36036558 L4.53813559,8.26758644 C4.32732203,8.53158287 4.31877966,8.95375593 4.51891525,9.22955108 L5.23616949,10.2184316 C5.41616949,10.4669422 5.78654237,10.539578 6.02389831,10.3703401 L8.15674576,8.84646129 L8.15674576,12.5114396 Z M17.3019661,8.82728837 L16.6005763,9.79441495 C16.578,9.82612401 16.4873898,9.85340856 16.4480339,9.82464917 L14.1855254,8.23255899 C14.1086441,8.17872731 14.025661,8.14959921 13.9454237,8.14959921 C13.7129492,8.14959921 13.5384407,8.37819947 13.5384407,8.68091046 L13.5384407,15.2004423 C13.5384407,15.2811899 13.4752881,15.3925403 13.4133559,15.420931 L11.574,16.27302 C11.4144407,16.3463933 11.278678,16.383633 11.2557966,16.3858453 C11.2307797,16.3843705 11.0895254,16.3508178 10.922339,16.2826065 L8.78308475,15.4050765 C8.72328814,15.3803729 8.66227119,15.277134 8.66227119,15.2011798 L8.66227119,8.68091046 C8.66227119,8.3719314 8.49477966,8.14738695 8.26413559,8.14738695 C8.23759322,8.14738695 8.21074576,8.15033663 8.18420339,8.15586729 L8.17871186,8.14222501 L8.17749153,8.15734213 C8.12288136,8.1709844 8.06857627,8.1964254 8.01518644,8.23513996 L5.76488136,9.84455952 C5.72674576,9.87184407 5.63827119,9.84603436 5.616,9.81580013 L4.89874576,8.82655095 C4.87311864,8.79115478 4.87464407,8.7262618 4.90149153,8.69307789 L8.03013559,4.78364476 C8.10030508,4.69552305 8.26932203,4.60924489 8.37091525,4.60924489 L9.0640678,4.60924489 C9.18457627,4.60924489 9.39233898,4.68372433 9.49240678,4.762997 L10.7035932,5.71205678 C10.915322,5.87871374 11.282339,5.87981987 11.4965085,5.71205678 L12.7073898,4.762997 C12.8080678,4.68409304 13.0164407,4.60924489 13.1360339,4.60924489 L13.8297966,4.60924489 C13.9310847,4.60924489 14.0997966,4.69552305 14.1699661,4.78401347 L17.2983051,8.6934466 C17.3260678,8.7262618 17.3275932,8.7918922 17.3019661,8.82728837 Z" id="Shape"></path>
                            <path d="M11.0230169,6.51436995 C10.8183051,6.51436995 10.6520339,6.71568566 10.6520339,6.96309013 C10.6520339,7.2104946 10.8183051,7.41144161 11.0230169,7.41144161 C11.2280339,7.41144161 11.3946102,7.2104946 11.3946102,6.96309013 C11.3946102,6.71568566 11.2280339,6.51436995 11.0230169,6.51436995 Z M11.0230169,7.13490903 C10.9446102,7.13490903 10.8808475,7.05784863 10.8808475,6.96309013 C10.8808475,6.86833164 10.9446102,6.79090252 11.0230169,6.79090252 C11.1017288,6.79090252 11.1657966,6.86796293 11.1657966,6.96309013 C11.1657966,7.05784863 11.1017288,7.13490903 11.0230169,7.13490903 Z" id="Shape"></path>
                            <path d="M11.0230169,8.84277419 C10.8183051,8.84277419 10.6520339,9.0440899 10.6520339,9.29186309 C10.6520339,9.53889885 10.8183051,9.74058327 11.0230169,9.74058327 C11.2280339,9.74058327 11.3946102,9.53889885 11.3946102,9.29186309 C11.3946102,9.0440899 11.2280339,8.84277419 11.0230169,8.84277419 Z M11.0230169,9.46331328 C10.9446102,9.46331328 10.8808475,9.38625287 10.8808475,9.29112567 C10.8808475,9.19599846 10.9446102,9.11893805 11.0230169,9.11893805 C11.1017288,9.11893805 11.1657966,9.19599846 11.1657966,9.29112567 C11.1657966,9.38662158 11.1017288,9.46331328 11.0230169,9.46331328 Z" id="Shape"></path>
                            <path d="M11.0230169,11.170441 C10.8183051,11.170441 10.6520339,11.3721254 10.6520339,11.6195299 C10.6520339,11.8669344 10.8183051,12.0682501 11.0230169,12.0682501 C11.2280339,12.0682501 11.3946102,11.8669344 11.3946102,11.6195299 C11.3946102,11.3721254 11.2280339,11.170441 11.0230169,11.170441 Z M11.0230169,11.7917175 C10.9446102,11.7917175 10.8808475,11.7146571 10.8808475,11.6195299 C10.8808475,11.524034 10.9446102,11.4469736 11.0230169,11.4469736 C11.1017288,11.4469736 11.1657966,11.524034 11.1657966,11.6195299 C11.1657966,11.7146571 11.1017288,11.7917175 11.0230169,11.7917175 Z" id="Shape"></path>
                            <path d="M11.0230169,13.4995827 C10.8183051,13.4995827 10.6520339,13.7012671 10.6520339,13.9483029 C10.6520339,14.1960761 10.8183051,14.3970231 11.0230169,14.3970231 C11.2280339,14.3970231 11.3946102,14.1960761 11.3946102,13.9483029 C11.3946102,13.7012671 11.2280339,13.4995827 11.0230169,13.4995827 Z M11.0230169,14.1201218 C10.9446102,14.1201218 10.8808475,14.0430614 10.8808475,13.9479342 C10.8808475,13.8524382 10.9446102,13.7753778 11.0230169,13.7753778 C11.1017288,13.7753778 11.1657966,13.8524382 11.1657966,13.9479342 C11.1657966,14.0430614 11.1017288,14.1201218 11.0230169,14.1201218 Z" id="Shape"></path>
                        </g>
                    </g>
                </g>
            </g>
        </g>
    </g>
</svg>