<?xml version="1.0" encoding="UTF-8"?>
<svg width="24px" height="24px" viewBox="0 0 24 24" version="1.1" xmlns="http://www.w3.org/2000/svg" xmlns:xlink="http://www.w3.org/1999/xlink">
    <!-- Generator: sketchtool 41.2 (35397) - http://www.bohemiancoding.com/sketch -->
    <title>logout</title>
    <desc>Created with sketchtool.</desc>
    <defs></defs>
    <g id="Icons" stroke="none" stroke-width="1" fill="none" fill-rule="evenodd">
        <g id="Icon-Set-5" transform="translate(-168.000000, -73.000000)" fill="#000000">
            <g id="Add-24-Copy" transform="translate(168.000000, 72.000000)">
                <g id="Group" transform="translate(6.000000, 3.000000)">
                    <path d="M5.7492,0.260509091 L5.64381818,0.260509091 C3.29727273,0.260509091 1.38861818,1.90570909 1.38861818,3.92890909 L1.38861818,7.83490909 C0.656836364,8.62625455 0.216327273,9.62476364 0.216327273,10.7113091 L0.216327273,13.1062909 C0.216327273,15.6655636 2.64338182,17.7476727 5.62778182,17.7476727 L5.76589091,17.7476727 C8.74963636,17.7476727 11.1773455,15.6658909 11.1773455,13.1062909 L11.1773455,10.7113091 C11.1773455,9.62476364 10.7355273,8.6256 10.0037455,7.8336 L10.0037455,3.92890909 C10.0037455,1.90570909 8.09509091,0.260509091 5.7492,0.260509091 Z M2.50167273,3.92890909 C2.50167273,2.51934545 3.91189091,1.37323636 5.64414545,1.37323636 L5.74952727,1.37323636 C7.48178182,1.37323636 8.89134545,2.51934545 8.89134545,3.92890909 L8.89134545,6.92869091 C8.00738182,6.39 6.93032727,6.0696 5.76621818,6.0696 L5.62810909,6.0696 C4.46269091,6.0696 3.38563636,6.39 2.50167273,6.93 L2.50167273,3.92890909 L2.50167273,3.92890909 Z M10.0646182,10.7113091 L10.0646182,13.1062909 C10.0646182,15.0519273 8.136,16.6346182 5.76589091,16.6346182 L5.62778182,16.6346182 C3.25701818,16.6346182 1.3284,15.0519273 1.3284,13.1062909 L1.3284,10.7113091 C1.3284,8.76567273 3.25701818,7.18232727 5.62778182,7.18232727 L5.76589091,7.18232727 C8.136,7.18232727 10.0646182,8.76567273 10.0646182,10.7113091 Z" id="Shape"></path>
                    <rect id="Rectangle-path" x="5.13949091" y="10.5172364" width="1.11272727" height="3.13069091"></rect>
                </g>
            </g>
        </g>
    </g>
</svg>