<?xml version="1.0" encoding="UTF-8"?>
<svg width="24px" height="24px" viewBox="0 0 24 24" version="1.1" xmlns="http://www.w3.org/2000/svg" xmlns:xlink="http://www.w3.org/1999/xlink">
    <!-- Generator: sketchtool 41.2 (35397) - http://www.bohemiancoding.com/sketch -->
    <title>manageusers</title>
    <desc>Created with sketchtool.</desc>
    <defs></defs>
    <g id="Icons" stroke="none" stroke-width="1" fill="none" fill-rule="evenodd">
        <g id="Icon-Set-4" transform="translate(-96.000000, -72.000000)" fill="#000000">
            <g id="Search-24" transform="translate(96.000000, 72.000000)">
                <g id="manageusers-icon" transform="translate(3.000000, 5.000000)">
                    <g id="Capa_1">
                        <path d="M16.6551,13.3358818 L13.7232,12.0687485 C13.6542,12.0343237 13.5777,11.9502073 13.512,11.8379524 L15.4695,11.8364557 C15.5037,11.8397485 16.3107,11.9133877 16.9578,11.6358936 C17.2029,11.5305237 17.3853,11.3224779 17.4585,11.06504 C17.5323,10.8052074 17.4855,10.530108 17.3307,10.3097891 C16.7712,9.51532377 15.4653,7.43935654 15.4245,5.33375402 C15.4236,5.2975331 15.3054,1.71675156 11.7615,1.68771496 C11.2398,1.69190581 10.7574,1.78021299 10.3185,1.94305743 C10.2228,1.69968882 10.0818,1.44584307 9.8721,1.20696465 C9.2562,0.50529671 8.2563,0.149673196 6.9,0.149673196 C5.5437,0.149673196 4.5438,0.50529671 3.9276,1.20636596 C3.2172,2.01490057 3.2832,2.99526 3.3,3.15960117 L3.3,4.75182463 C3.108,4.97004815 3,5.24933833 3,5.53760891 L3,6.73499448 C3,7.09929904 3.1659,7.43905719 3.4491,7.66566241 C3.7239,8.75139178 4.299,9.56950547 4.5,9.83203225 L4.5,10.8225695 C4.5,11.1123368 4.3416,11.3781564 4.0869,11.5170531 L1.4106,12.9736726 C0.5403,13.4478373 0,14.3560543 0,15.3450948 L0,16.6137248 L13.2,16.6137248 L13.8,16.6137248 L18,16.6137248 L18,15.5070412 C18,14.5814621 17.4846,13.7498778 16.6551,13.3358818 Z M13.2,16.015032 L0.6,16.015032 L0.6,15.3450948 C0.6,14.5754752 1.0206,13.8681197 1.6977,13.4999236 L4.374,12.0433041 C4.8219,11.7993367 5.1,11.3314583 5.1,10.8228688 L5.1,9.61979566 L5.0301,9.53657737 C5.0229,9.52789632 4.2876,8.64033427 4.0071,7.4216951 L3.9798,7.30315393 L3.8775,7.23729773 C3.7038,7.12534218 3.6,6.93765199 3.6,6.73529383 L3.6,5.53790826 C3.6,5.36997493 3.6714,5.21341677 3.801,5.09637233 L3.9,5.00746645 L3.9,3.14313712 L3.8973,3.10392274 C3.8964,3.09584039 3.7944,2.26605219 4.3788,1.60090451 C4.8759,1.03513982 5.7243,0.748365981 6.9,0.748365981 C8.0715,0.748365981 8.9181,1.0330444 9.4158,1.59491758 C9.6633,1.87390842 9.7878,2.18552801 9.8499,2.45314368 C9.8547,2.47409793 9.8592,2.49475283 9.8634,2.51540773 C9.8676,2.53666133 9.8721,2.55791492 9.8754,2.57827048 C9.8793,2.6016195 9.8826,2.62377113 9.8859,2.64592276 C9.8883,2.66178812 9.8907,2.67795283 9.8925,2.69321949 C9.897,2.73033844 9.9006,2.76626001 9.903,2.79948746 C9.9033,2.80218158 9.9033,2.80457635 9.9033,2.80727047 C9.9054,2.83959988 9.9069,2.87013321 9.9078,2.89797242 C9.9078,2.90336066 9.9078,2.90785085 9.9081,2.91323909 C9.9087,2.93808484 9.9087,2.96173321 9.9084,2.98238811 L9.9084,2.9913685 C9.9072,3.0617149 9.9024,3.1036234 9.9024,3.10452143 L9.9,5.00746645 L9.999,5.09667167 C10.1286,5.21341677 10.2,5.36997493 10.2,5.53790826 L10.2,6.73529383 C10.2,6.99662323 10.0284,7.22532387 9.7734,7.30375263 L9.624,7.34955262 L9.576,7.49772909 C9.3753,8.12066893 9.0894,8.6960127 8.7258,9.20789503 C8.6367,9.33391986 8.55,9.44557606 8.4747,9.53088978 L8.4,9.61590416 L8.4,10.850708 C8.4,10.9264427 8.4075,11.0006806 8.4192,11.0737211 C8.4216,11.0892871 8.4258,11.1042544 8.4288,11.1198204 C8.4405,11.1799891 8.4561,11.2389603 8.4753,11.2964348 C8.4798,11.3099054 8.4846,11.3227773 8.4897,11.3362479 C8.5131,11.3988113 8.5404,11.4592792 8.5722,11.5173524 C8.5758,11.5239381 8.5791,11.530823 8.5827,11.5374087 C8.6262,11.6140413 8.6763,11.6867825 8.7339,11.7538361 L8.8023,11.8379524 L8.814,11.8379524 C8.9169,11.9391315 9.0351,12.0271393 9.1695,12.0941929 L12.0354,13.5238713 C12.7539,13.8818896 13.2,14.602117 13.2,15.4034673 L13.2,16.015032 Z M17.4,16.015032 L13.8,16.015032 L13.8,15.4034673 C13.8,14.3740151 13.2267,13.4487354 12.3042,12.9883406 L10.2468,11.9615825 C10.2975,11.8460348 10.3041,11.7137237 10.2597,11.5862021 C10.1862,11.3751629 9.9942,11.2389603 9.7707,11.2389603 L9.1056,11.2389603 C9.0918,11.2147132 9.0828,11.1880714 9.0717,11.1623276 C9.0567,11.1279028 9.039,11.0940766 9.0291,11.0578557 C9.0108,10.9914008 9,10.9219525 9,10.850708 L9,9.83861787 C9.0687,9.75480088 9.141,9.65930939 9.2157,9.55393946 C9.5874,9.03008327 9.8853,8.4469565 10.1019,7.81802973 C10.5252,7.62435261 10.8,7.20676439 10.8,6.73529383 L10.8,5.53790826 C10.8,5.24963768 10.692,4.9703475 10.5,4.75212398 L10.5,3.15990052 C10.5078,3.08506392 10.5246,2.83989922 10.4748,2.51959858 C10.8612,2.36812931 11.2941,2.2899999 11.7618,2.2861084 C14.7141,2.31035546 14.8218,5.22299585 14.8248,5.34572787 C14.8689,7.61567157 16.2486,9.81407147 16.8399,10.6537381 C16.8906,10.7255812 16.9059,10.8159838 16.8816,10.9012976 C16.8678,10.9503904 16.8282,11.0395956 16.7211,11.0853956 C16.2171,11.301823 15.5334,11.240457 15.4983,11.2389603 L13.4334,11.2389603 C13.2405,11.2389603 13.0647,11.3368466 12.963,11.500589 C12.8616,11.6637328 12.852,11.8630975 12.9372,12.0343237 C13.0311,12.2232112 13.197,12.4755602 13.4697,12.6111642 L16.3938,13.8750046 C17.0145,14.1878216 17.4,14.8122582 17.4,15.5070412 L17.4,16.015032 Z" id="Shape"></path>
                    </g>
                </g>
            </g>
        </g>
    </g>
</svg>