<?xml version="1.0" encoding="UTF-8"?>
<svg width="24px" height="24px" viewBox="0 0 24 24" version="1.1" xmlns="http://www.w3.org/2000/svg" xmlns:xlink="http://www.w3.org/1999/xlink">
    <!-- Generator: sketchtool 41.2 (35397) - http://www.bohemiancoding.com/sketch -->
    <title>messages</title>
    <desc>Created with sketchtool.</desc>
    <defs></defs>
    <g id="Icons" stroke="none" stroke-width="1" fill="none" fill-rule="evenodd">
        <g id="Icon-Set-1" transform="translate(-24.000000, -24.000000)" fill="#000000">
            <g id="profile" transform="translate(24.000000, 24.000000)">
                <g id="messages-icon" transform="translate(3.000000, 6.000000)">
                    <g id="Expanded">
                        <g id="Group">
                            <path d="M15.9454545,11.5714286 L1.44958678,11.5714286 C0.650139669,11.5714286 0,10.9227054 0,10.125 L0,1.44642857 C0,0.648723214 0.650139669,0 1.44958678,0 L15.9454545,0 C16.7449016,0 17.3950413,0.648723214 17.3950413,1.44642857 L17.3950413,10.125 C17.3950413,10.9227054 16.7449016,11.5714286 15.9454545,11.5714286 Z M1.44958678,0.723214286 C1.04986322,0.723214286 0.724793388,1.04757589 0.724793388,1.44642857 L0.724793388,10.125 C0.724793388,10.5238527 1.04986322,10.8482143 1.44958678,10.8482143 L15.9454545,10.8482143 C16.3451781,10.8482143 16.6702479,10.5238527 16.6702479,10.125 L16.6702479,1.44642857 C16.6702479,1.04757589 16.3451781,0.723214286 15.9454545,0.723214286 L1.44958678,0.723214286 Z" id="Shape"></path>
                            <path d="M8.69752065,7.66281696 L2.33999545,3.55821429 C2.17184339,3.44937054 2.12364463,3.22589732 2.23236363,3.05811161 C2.34108264,2.89032589 2.5654062,2.84259375 2.73355826,2.95071429 L8.69752065,6.80146875 L14.661483,2.95071429 C14.8296351,2.84259375 15.0539587,2.89032589 15.1626777,3.05811161 C15.2713967,3.22589732 15.2231979,3.44937054 15.0550459,3.55821429 L8.69752065,7.66281696 Z" id="Shape"></path>
                            <path d="M2.17474256,9.40178571 C2.05768843,9.40178571 1.94244628,9.345375 1.87286611,9.24087054 C1.76161033,9.07453125 1.80654752,8.85033482 1.97325,8.73932143 L5.23482024,6.56967857 C5.40152272,6.45866518 5.62657107,6.50350446 5.73746446,6.66984375 C5.84872024,6.83618304 5.80378305,7.06037946 5.63708057,7.17139286 L2.37551033,9.34103571 C2.31354049,9.38189732 2.24359793,9.40178571 2.17474256,9.40178571 Z" id="Shape"></path>
                            <path d="M15.2202987,9.40178571 C15.1514434,9.40178571 15.0815008,9.38189732 15.019531,9.34103571 L11.7579607,7.17139286 C11.5912583,7.06037946 11.5463211,6.83618304 11.6575768,6.66984375 C11.7684702,6.50350446 11.9931562,6.45866518 12.1602211,6.56967857 L15.4217913,8.73932143 C15.5884938,8.85033482 15.633431,9.07453125 15.5221752,9.24087054 C15.452595,9.345375 15.3373529,9.40178571 15.2202987,9.40178571 Z" id="Shape"></path>
                        </g>
                    </g>
                </g>
            </g>
        </g>
    </g>
</svg>