<?xml version="1.0" encoding="UTF-8"?>
<svg width="24px" height="24px" viewBox="0 0 24 24" version="1.1" xmlns="http://www.w3.org/2000/svg" xmlns:xlink="http://www.w3.org/1999/xlink">
    <!-- Generator: sketchtool 41.2 (35397) - http://www.bohemiancoding.com/sketch -->
    <title>ordertypes</title>
    <desc>Created with sketchtool.</desc>
    <defs></defs>
    <g id="Icons" stroke="none" stroke-width="1" fill="none" fill-rule="evenodd">
        <g id="Icon-Set-4" transform="translate(-240.000000, -72.000000)" fill="#000000">
            <g id="Check-24" transform="translate(240.000000, 72.000000)">
                <g id="ordertypes-icon" transform="translate(4.000000, 3.000000)">
                    <g id="Layer_1">
                        <path d="M14.9855513,1.35288281 L10.1291738,1.35288281 L10.1291738,0.358558594 C10.1291738,0.160523438 9.96829989,0 9.76983233,0 L6.71921723,0 C6.52074968,0 6.35987574,0.160523438 6.35987574,0.358558594 L6.35987574,1.35284766 L1.50349832,1.35284766 C0.676967091,1.35284766 0.00447459251,2.02383984 0.00447459251,2.84860547 L0.00447459251,10.8560391 C0.00447459251,11.6807695 0.676931858,12.3517969 1.50349832,12.3517969 L6.35987574,12.3517969 L6.35987574,17.6414414 C6.35987574,17.8394766 6.52074968,18 6.71921723,18 L9.76983233,18 C9.96829989,18 10.1291738,17.8394766 10.1291738,17.6414414 L10.1291738,12.3517969 L14.985516,12.3517969 C15.8120472,12.3517969 16.4845397,11.6808047 16.4845397,10.8560391 L16.4845397,2.84864063 C16.484575,2.02383984 15.8121177,1.35288281 14.9855513,1.35288281 Z M7.07859395,0.717117187 L9.41052608,0.717117187 L9.41052608,1.35284766 L7.07859395,1.35284766 L7.07859395,0.717117187 Z M9.41045561,17.2828828 L7.07852349,17.2828828 L7.07852349,12.3517969 L9.41045561,12.3517969 L9.41045561,17.2828828 Z M15.7658568,10.8560391 C15.7658568,11.2854023 15.4158168,11.6346797 14.985516,11.6346797 L1.50349832,11.6346797 C1.07319754,11.6346797 0.723157569,11.2854023 0.723157569,10.8560391 L0.723157569,2.84864062 C0.723157569,2.41927734 1.07319754,2.07 1.50349832,2.07 L14.9855513,2.07 C15.415852,2.07 15.765892,2.41927734 15.765892,2.84864062 L15.765892,10.8560391 L15.7658568,10.8560391 Z" id="Shape"></path>
                        <path d="M8.78355463,13.1952305 C8.58508708,13.1952305 8.42421314,13.3557539 8.42421314,13.5537891 L8.42421314,13.6972266 C8.42421314,13.8952617 8.58508708,14.0557852 8.78355463,14.0557852 C8.98202219,14.0557852 9.14289612,13.8952617 9.14289612,13.6972266 L9.14289612,13.5537891 C9.14289612,13.3557539 8.98202219,13.1952305 8.78355463,13.1952305 Z" id="Shape"></path>
                        <path d="M8.78355463,14.3784844 C8.58508708,14.3784844 8.42421314,14.5390078 8.42421314,14.737043 L8.42421314,16.6374492 C8.42421314,16.8354844 8.58508708,16.9960078 8.78355463,16.9960078 C8.98202219,16.9960078 9.14289612,16.8354844 9.14289612,16.6374492 L9.14289612,14.737043 C9.14289612,14.5390078 8.98202219,14.3784844 8.78355463,14.3784844 Z" id="Shape"></path>
                        <path d="M6.68486505,3.76467187 L5.422431,3.76467187 C5.29869266,3.76467187 5.17502479,3.82271484 5.17502479,3.93890625 L5.17506002,3.93890625 L5.17506002,6.24410156 C5.17506002,6.36022266 5.31694336,6.41833594 5.4588267,6.41833594 C5.60071004,6.41833594 5.74255814,6.36025781 5.74255814,6.24410156 L5.74255814,5.30750391 L6.2919465,5.30750391 C6.4120206,5.30750391 6.4629323,5.1913125 6.4629323,5.09333203 C6.4629323,4.97714062 6.40109837,4.87188281 6.2919465,4.87188281 L5.74255814,4.87188281 L5.74255814,4.25837109 L6.68482981,4.25837109 C6.79398168,4.25837109 6.85585085,4.14221484 6.85585085,4.00791797 C6.85588609,3.89172656 6.80493915,3.76467187 6.68486505,3.76467187 Z" id="Shape"></path>
                        <path d="M8.1764546,3.76463672 C7.67438419,3.76463672 7.28509464,3.99694922 7.28509464,4.62135938 L7.28509464,5.58333984 C7.28509464,6.20775 7.67438419,6.4400625 8.1764546,6.4400625 C8.67845456,6.4400625 9.07140834,6.20775 9.07140834,5.58333984 L9.07140834,4.62135938 C9.07140834,3.99698438 8.67852502,3.76463672 8.1764546,3.76463672 Z M8.50387498,5.583375 C8.50387498,5.83386328 8.38017188,5.94639844 8.17648984,5.94639844 C7.97273733,5.94639844 7.85269846,5.83386328 7.85269846,5.583375 L7.85269846,4.62139453 C7.85269846,4.37090625 7.97277256,4.25833594 8.17648984,4.25833594 C8.38020711,4.25833594 8.50387498,4.37090625 8.50387498,4.62139453 L8.50387498,5.583375 Z" id="Shape"></path>
                        <path d="M11.5524466,6.08073047 L11.1085811,5.27842969 C11.3632453,5.18044922 11.5487823,4.94810156 11.5487823,4.54151953 C11.5487823,3.94976953 11.1522348,3.76463672 10.6538286,3.76463672 L9.90072297,3.76463672 C9.79523534,3.76463672 9.72607293,3.84447656 9.72607293,3.93525 L9.72607293,6.24410156 C9.72607293,6.36022266 9.86795627,6.41833594 10.0098396,6.41833594 C10.151723,6.41833594 10.2935711,6.36025781 10.2935711,6.24410156 L10.2935711,5.36923828 L10.533684,5.36923828 L11.0320902,6.33483984 C11.0721502,6.41105859 11.1413126,6.44013281 11.2140335,6.44013281 C11.3813903,6.44013281 11.5705916,6.28766016 11.5705916,6.14608594 C11.5706268,6.12791016 11.5669626,6.10249219 11.5524466,6.08073047 Z M10.6537934,4.93358203 L10.2936063,4.93358203 L10.2936063,4.25837109 L10.2936063,4.25833594 L10.6537934,4.25833594 C10.8575106,4.25833594 10.9812137,4.34183203 10.9812137,4.59597656 C10.9811785,4.85008594 10.8575106,4.93358203 10.6537934,4.93358203 Z" id="Shape"></path>
                        <path d="M5.74819542,9.70224609 L5.30432994,8.89994531 C5.55899415,8.80196484 5.74453119,8.56961719 5.74453119,8.16303516 C5.74453119,7.57128516 5.34798364,7.38615234 4.84957746,7.38615234 L4.09650706,7.38615234 C3.99098419,7.38615234 3.92185702,7.46599219 3.92185702,7.55676562 L3.92185702,9.86561719 C3.92185702,9.98177344 4.06374036,10.0398516 4.2056237,10.0398516 C4.34750704,10.0398516 4.48935514,9.98177344 4.48935514,9.86561719 L4.48935514,8.99075391 L4.72946812,8.99075391 L5.22787431,9.95635547 C5.26793424,10.0325742 5.33709664,10.0616484 5.40981758,10.0616484 C5.57717439,10.0616484 5.76637566,9.90917578 5.76637566,9.76760156 C5.76637566,9.74942578 5.76271143,9.72400781 5.74819542,9.70224609 Z M4.84957746,8.55509766 L4.48939038,8.55509766 L4.48939038,7.87988672 L4.48939038,7.87985156 L4.84957746,7.87985156 C5.05329473,7.87985156 5.1769626,7.96334766 5.1769626,8.21749219 C5.1769626,8.47160156 5.05329473,8.55509766 4.84957746,8.55509766 Z" id="Shape"></path>
                        <path d="M7.88000404,9.54611719 L6.90496567,9.54611719 L6.90496567,8.92898438 L7.45072503,8.92898438 C7.57079913,8.92898438 7.62171083,8.81279297 7.62171083,8.7148125 C7.62171083,8.59862109 7.5598769,8.49336328 7.45072503,8.49336328 L6.90496567,8.49336328 L6.90496567,8.49336328 L6.90496567,7.87985156 L7.88000404,7.87985156 C7.98912068,7.87985156 8.05102508,7.76369531 8.05102508,7.62939844 C8.05102508,7.51320703 8.00007815,7.3861875 7.88000404,7.3861875 L6.58483853,7.3861875 C6.46110019,7.3861875 6.33743232,7.44423047 6.33743232,7.56042188 L6.33743232,9.86561719 C6.33743232,9.98177344 6.46117065,10.0398516 6.58483853,10.0398516 L7.88000404,10.0398516 C8.00007815,10.0398516 8.05102508,9.91279688 8.05102508,9.79664063 C8.05102508,9.66230859 7.98912068,9.54611719 7.88000404,9.54611719 Z" id="Shape"></path>
                        <path d="M10.1645478,7.38615234 C10.0226644,7.38615234 9.88081632,7.43695312 9.88081632,7.55676562 L9.88081632,8.79106641 L9.2914385,7.66933594 C9.15314893,7.40432812 9.07676376,7.3861875 8.87304648,7.3861875 C8.73112791,7.3861875 8.58927981,7.44060937 8.58927981,7.56042187 L8.58927981,9.86561719 C8.58927981,9.98177344 8.73116314,10.0398516 8.87304648,10.0398516 C9.01492982,10.0398516 9.15677793,9.98177344 9.15677793,9.86561719 L9.15677793,8.63135156 L9.84801439,9.88741406 C9.91714156,10.0145039 10.0335514,10.0398867 10.1645125,10.0398516 C10.3063959,10.0398516 10.4482792,9.98177344 10.4482792,9.86561719 L10.4482792,7.55680078 C10.4483497,7.43698828 10.3064311,7.38615234 10.1645478,7.38615234 Z" id="Shape"></path>
                        <path d="M12.7073847,7.38615234 L11.1357457,7.38615234 C11.0156716,7.38615234 10.9647247,7.51682812 10.9647247,7.63660547 C10.9647247,7.77455859 11.0265939,7.89433594 11.1357457,7.89433594 L11.6378162,7.89433594 L11.6378162,9.86554687 C11.6378162,9.98170312 11.7796995,10.0397812 11.9215476,10.0397812 C12.0634309,10.0397812 12.205279,9.98170312 12.205279,9.86554687 L12.205279,7.89433594 L12.7073495,7.89433594 C12.8164661,7.89433594 12.8783705,7.77455859 12.8783705,7.63660547 C12.8784057,7.51686328 12.8274588,7.38615234 12.7073847,7.38615234 Z" id="Shape"></path>
                    </g>
                </g>
            </g>
        </g>
    </g>
</svg>