<?xml version="1.0" encoding="UTF-8"?>
<svg width="24px" height="24px" viewBox="0 0 24 24" version="1.1" xmlns="http://www.w3.org/2000/svg" xmlns:xlink="http://www.w3.org/1999/xlink">
    <!-- Generator: sketchtool 41.2 (35397) - http://www.bohemiancoding.com/sketch -->
    <title>payment</title>
    <desc>Created with sketchtool.</desc>
    <defs></defs>
    <g id="Icons" stroke="none" stroke-width="1" fill="none" fill-rule="evenodd">
        <g id="Icon-Set-1" transform="translate(-96.000000, -24.000000)" fill="#000000">
            <g id="Menu-24" transform="translate(96.000000, 24.000000)">
                <g id="payment-icon" transform="translate(3.000000, 3.995738)">
                    <g id="Layer_1">
                        <path d="M18,14.0562654 L18,14.0562654 C18,15.1346933 17.1242609,16.0085245 16.0434783,16.0085245 L16.0434783,16.0085245 L1.95652174,16.0085245 L1.95652174,16.0085245 C0.87573913,16.0085245 0,15.1346933 0,14.0562654 L0,2.73316271 C0,1.87065465 0.700826087,1.17135545 1.56521739,1.17135545 L1.56521739,1.17135545 L9.45821739,1.17135545 L12.6273913,0.0257698199 C12.8281304,-0.0472446697 13.0503913,0.0562250615 13.1235652,0.255745939 L13.4573478,1.17135545 L14.8695652,1.17135545 C15.7339565,1.17135545 16.4347826,1.87065465 16.4347826,2.73316271 L16.4347826,3.51406634 L16.4347826,3.51406634 C17.2991739,3.51406634 18,4.21336555 18,5.07587361 L18,14.0562654 Z M1.56521739,1.95225908 L1.56521739,1.95225908 C1.13321739,1.95225908 0.782608696,2.30210391 0.782608696,2.73316271 C0.782608696,3.16422152 1.13321739,3.51406634 1.56521739,3.51406634 L2.91326087,3.51406634 L2.91326087,3.51406634 L2.98721739,3.51406634 C2.99230435,3.51211408 2.99543478,3.50781912 3.00052174,3.50586686 L7.29782609,1.95225908 L1.56521739,1.95225908 Z M12.9435652,2.02293086 L12.528,0.881249749 L12.5276087,0.881249749 L12.5276087,0.881249749 L11.7250435,1.17135545 L11.7262174,1.17135545 L9.56856522,1.95225908 L9.56465217,1.95225908 L5.24504348,3.51406634 L13.4866957,3.51406634 L12.9435652,2.02293086 Z M15.6521739,2.73316271 C15.6521739,2.30210391 15.3015652,1.95225908 14.8695652,1.95225908 L13.7414348,1.95225908 L14.3103913,3.51406634 L15.6521739,3.51406634 L15.6521739,3.51406634 L15.6521739,2.73316271 Z M16.4347826,4.29496998 L1.56521739,4.29496998 L1.56521739,4.29496998 C1.27878261,4.29496998 1.01347826,4.21258464 0.782608696,4.07826922 L0.782608696,14.0562654 C0.782608696,14.703244 1.30852174,15.2276208 1.95652174,15.2276208 L16.0434783,15.2276208 C16.6918696,15.2276208 17.2173913,14.703244 17.2173913,14.0562654 L17.2173913,11.3231027 L15.6521739,11.3231027 C14.7877826,11.3231027 14.0869565,10.6238035 14.0869565,9.7612954 C14.0869565,8.89878734 14.7877826,8.19948814 15.6521739,8.19948814 L17.2173913,8.19948814 L17.2173913,5.07587361 C17.2173913,4.6448148 16.8667826,4.29496998 16.4347826,4.29496998 Z M17.2173913,10.542199 L17.2173913,8.98039177 L15.6521739,8.98039177 C15.2201739,8.98039177 14.8695652,9.3302366 14.8695652,9.7612954 C14.8695652,10.1923542 15.2201739,10.542199 15.6521739,10.542199 L17.2173913,10.542199 Z M15.6521739,9.37084358 L16.4347826,9.37084358 L16.4347826,10.1517472 L15.6521739,10.1517472 L15.6521739,9.37084358 Z" id="Shape"></path>
                    </g>
                </g>
            </g>
        </g>
    </g>
</svg>