<?xml version="1.0" encoding="UTF-8"?>
<svg width="24px" height="24px" viewBox="0 0 24 24" version="1.1" xmlns="http://www.w3.org/2000/svg" xmlns:xlink="http://www.w3.org/1999/xlink">
    <!-- Generator: sketchtool 41.2 (35397) - http://www.bohemiancoding.com/sketch -->
    <title>profile</title>
    <desc>Created with sketchtool.</desc>
    <defs></defs>
    <g id="Icons" stroke="none" stroke-width="1" fill="none" fill-rule="evenodd">
        <g id="Icon-Set-4" transform="translate(-24.000000, -24.000000)" fill="#000000">
            <g id="profile" transform="translate(24.000000, 24.000000)">
                <g id="category-icon" transform="translate(2.000000, 2.000000)">
                    <g id="category_x5F_edit" transform="translate(0.992731, 0.991409)">
                        <path d="M9.77323356,15.4924179 L11.4607336,15.4924179 L9.77323356,13.8049179 L9.77323356,15.4924179 Z M13.6073328,9.79345617 L10.4432703,12.9575187 L12.3417078,14.8559562 L15.5057703,11.6918937 L13.6073328,9.79345617 Z M12.6,7.2 C11.9676,7.2 11.3634,7.314 10.8,7.5132 L10.8,6 L6,6 L6,7.2 L3.6,7.2 L3.6,4.8 L4.8,4.8 L4.8,0 L0,0 L0,4.8 L2.4,4.8 L2.4,14.3994 L6,14.3994 L6,16.8 L9.2094,16.8 C10.1364,17.5488 11.3154,17.9994 12.6,18 C15.5826,17.9988 17.9988,15.5826 18,12.6 C17.9988,9.6162 15.5826,7.2 12.6,7.2 Z M7.51804412,12.0971106 L6.18618177,12.0971106 L6.18618177,13.4327142 L3.59943211,13.4327142 L3.59878526,8.08896422 L6.18618177,8.08896422 L6.18618177,10.761507 L7.81753526,10.761507 C7.67199421,11.1875646 7.56720465,11.6336562 7.51804412,12.0971106 Z M12.721104,17.2492364 C10.1587833,17.2431693 8.08587196,15.170258 8.0798049,12.6092855 C8.08587196,10.0469648 10.1587833,7.97405346 12.721104,7.9679864 C15.2820765,7.97405346 17.3549878,10.0469648 17.3610549,12.6092855 C17.3549878,15.170258 15.2820765,17.2431693 12.721104,17.2492364 Z M0.945316787,0.984745193 L3.92631283,0.984745193 L3.92631283,3.93829991 L0.945316787,3.93829991 L0.945316787,0.984745193 Z" id="Shape"></path>
                    </g>
                </g>
            </g>
        </g>
    </g>
</svg>