<?xml version="1.0" encoding="UTF-8"?>
<svg width="24px" height="24px" viewBox="0 0 24 24" version="1.1" xmlns="http://www.w3.org/2000/svg" xmlns:xlink="http://www.w3.org/1999/xlink">
    <!-- Generator: sketchtool 41.2 (35397) - http://www.bohemiancoding.com/sketch -->
    <title>reviews</title>
    <desc>Created with sketchtool.</desc>
    <defs></defs>
    <g id="Icons" stroke="none" stroke-width="1" fill="none" fill-rule="evenodd">
        <g id="Icon-Set-1" transform="translate(-24.000000, -72.000000)" fill="#000000">
            <g id="Star-24" transform="translate(24.000000, 72.000000)">
                <g id="reviews-icon" transform="translate(3.000000, 3.000000)">
                    <g id="Group">
                        <path d="M9,5.63211358 C10.556161,5.63211358 11.8221864,4.36884644 11.8221864,2.81603776 C11.8221864,1.26326714 10.556161,0 9,0 C7.44383898,0 6.17781356,1.26326714 6.17781356,2.81603776 C6.17781356,4.36884644 7.44383898,5.63211358 9,5.63211358 Z M9,0.570787612 C10.2407415,0.570787612 11.2501525,1.57799943 11.2501525,2.81603776 C11.2501525,4.0540761 10.2407415,5.06132597 9,5.06132597 C7.75925847,5.06132597 6.74984746,4.0540761 6.74984746,2.81603776 C6.74984746,1.57799943 7.75925847,0.570787612 9,0.570787612 Z" id="Shape"></path>
                        <path d="M9,6.77368881 C11.2809661,6.77368881 13.1538051,8.55036038 13.301428,10.7897124 L6.69127119,10.7897124 C6.53331356,10.7897124 6.40525424,10.9174547 6.40525424,11.0751062 C6.40525424,11.2327577 6.53331356,11.3605 6.69127119,11.3605 L13.5968644,11.3605 C13.754822,11.3605 13.8828814,11.2327577 13.8828814,11.0751062 C13.8828814,8.38856112 11.6924492,6.20290119 9,6.20290119 C6.30755085,6.20290119 4.11711864,8.38856112 4.11711864,11.0751062 C4.11711864,11.2327577 4.24517797,11.3605 4.40313559,11.3605 L5.54720339,11.3605 C5.70516102,11.3605 5.83322034,11.2327577 5.83322034,11.0751062 C5.83322034,10.9174547 5.70516102,10.7897124 5.54720339,10.7897124 L4.6985339,10.7897124 C4.84619492,8.55036038 6.71907203,6.77368881 9,6.77368881 L9,6.77368881 Z" id="Shape"></path>
                        <path d="M5.39267797,14.3728887 L3.82366525,14.1101361 L3.08837288,12.7023836 C3.03910169,12.6080515 2.94136017,12.5488798 2.83473305,12.5488798 C2.72810593,12.5488798 2.63036441,12.6080515 2.58109322,12.7023836 L1.84580085,14.1101361 L0.276788136,14.3728887 C0.171648305,14.390507 0.0850423729,14.4649758 0.0520932203,14.5661574 C0.0191440678,14.667301 0.0453432203,14.7783762 0.120012712,14.8542529 L1.23460169,15.9870761 L1.0001822,17.5572367 C0.984470339,17.6624899 1.02870763,17.7676671 1.11497034,17.8301873 C1.20115678,17.8927457 1.31514407,17.9021827 1.41055932,17.8547693 L2.83469492,17.1471068 L4.25883051,17.8547693 C4.29917797,17.8747849 4.34284322,17.8846785 4.38627966,17.8846785 C4.44565678,17.8846785 4.50465254,17.8662611 4.55441949,17.8301493 C4.6406822,17.767629 4.68491949,17.6624519 4.66920763,17.5571986 L4.43478814,15.987038 L5.54937712,14.8542149 C5.62404661,14.7783382 5.65024576,14.6672629 5.61729661,14.5661193 C5.58442373,14.4649758 5.4978178,14.390507 5.39267797,14.3728887 L5.39267797,14.3728887 Z M3.92686017,15.6886303 C3.86405085,15.7524824 3.83483898,15.842058 3.84807203,15.9306062 L4.02261864,17.0996933 L2.96225847,16.5727803 C2.88198305,16.5328632 2.78755932,16.5328632 2.70724576,16.5727803 L1.64684746,17.0996933 L1.82139407,15.9306062 C1.83462712,15.842058 1.80545339,15.7524443 1.74260593,15.6886303 L0.912699153,14.8451584 L2.08094492,14.6494924 C2.16941949,14.6346519 2.24580508,14.5792855 2.28725847,14.499908 L2.83473305,13.4517136 L3.38220763,14.499908 C3.42366102,14.5792855 3.50004661,14.6346519 3.58852119,14.6494924 L4.75676695,14.8451584 L3.92686017,15.6886303 L3.92686017,15.6886303 Z" id="Shape"></path>
                        <path d="M11.5579449,14.3728887 L9.9889322,14.1101361 L9.25363983,12.7023836 C9.20436864,12.6080515 9.10662712,12.5488798 9,12.5488798 C8.89337288,12.5488798 8.79563136,12.6080515 8.74636017,12.7023836 L8.0110678,14.1101361 L6.44205508,14.3728887 C6.33691525,14.390507 6.25030932,14.4649758 6.21736017,14.5661574 C6.18441102,14.667301 6.21061017,14.7783762 6.28527966,14.8542529 L7.39986864,15.9870761 L7.16548729,17.5572367 C7.14977542,17.6624899 7.19401271,17.7676671 7.28027542,17.8301873 C7.36646186,17.8927457 7.48044915,17.9021827 7.57586441,17.8547693 L9,17.1471068 L10.4241356,17.8547693 C10.4644831,17.8747849 10.5081483,17.8846785 10.5515847,17.8846785 C10.6109619,17.8846785 10.6699576,17.8662611 10.7197246,17.8301493 C10.8059873,17.767629 10.8502246,17.6624519 10.8345127,17.5571986 L10.6001314,15.987038 L11.7147203,14.8542149 C11.7893898,14.7783382 11.815589,14.6672629 11.7826398,14.5661193 C11.7496907,14.4649758 11.6630847,14.390507 11.5579449,14.3728887 L11.5579449,14.3728887 Z M10.0921271,15.6886303 C10.0293178,15.7524824 10.0001059,15.842058 10.013339,15.9306062 L10.1878475,17.0996933 L9.12748729,16.5727803 C9.08733051,16.5528408 9.04366525,16.542871 9,16.542871 C8.95633475,16.542871 8.91263136,16.5528408 8.87251271,16.5727803 L7.81215254,17.0996933 L7.98666102,15.9306062 C7.99989407,15.842058 7.97072034,15.7524443 7.90787288,15.6886303 L7.0779661,14.8451584 L8.24621186,14.6494924 C8.33468644,14.6346519 8.41107203,14.5792855 8.45252542,14.499908 L9,13.4517517 L9.54747458,14.499946 C9.58892797,14.5793236 9.66531356,14.63469 9.75378814,14.6495304 L10.9220339,14.8451964 L10.0921271,15.6886303 L10.0921271,15.6886303 Z" id="Shape"></path>
                        <path d="M17.9478686,14.5661574 C17.9149195,14.4649758 17.8283517,14.390507 17.7231737,14.3728887 L16.154161,14.1101361 L15.4188686,12.7023836 C15.3695975,12.6080515 15.2718559,12.5488798 15.1652288,12.5488798 C15.0586017,12.5488798 14.9608602,12.6080515 14.911589,12.7023836 L14.1762966,14.1101361 L12.6072839,14.3728887 C12.5021441,14.390507 12.4155381,14.4649758 12.382589,14.5661574 C12.3496398,14.667301 12.375839,14.7783762 12.4505085,14.8542529 L13.5650975,15.9870761 L13.330678,17.5572367 C13.3149661,17.6624899 13.3592034,17.7676671 13.4454661,17.8301873 C13.5316525,17.8927457 13.6456398,17.9021827 13.7410551,17.8547693 L15.1651907,17.1471068 L16.5893263,17.8547693 C16.6296737,17.8747849 16.673339,17.8846785 16.7167754,17.8846785 C16.7761525,17.8846785 16.8351483,17.8662611 16.8849153,17.8301493 C16.971178,17.767629 17.0154153,17.6624519 16.9997034,17.5571986 L16.7652839,15.987038 L17.8798729,14.8542149 C17.9546186,14.7783762 17.9808178,14.667301 17.9478686,14.5661574 L17.9478686,14.5661574 Z M16.2573941,15.6886303 C16.1945847,15.7524824 16.1653729,15.842058 16.1786059,15.9306062 L16.3531525,17.0996933 L15.2927542,16.5727803 C15.2525975,16.5528408 15.2089322,16.542871 15.1652669,16.542871 C15.1215636,16.542871 15.0778983,16.5528408 15.0377797,16.5727803 L13.9774195,17.0996933 L14.1519661,15.9306062 C14.1651992,15.842058 14.1360254,15.7524443 14.073178,15.6886303 L13.2432712,14.8451584 L14.4115169,14.6494924 C14.4999915,14.6346519 14.5763771,14.5792855 14.6178305,14.499908 L15.1653051,13.4517136 L15.7127797,14.499908 C15.7542331,14.5792855 15.8306186,14.6346519 15.9190932,14.6494924 L17.087339,14.8451584 L16.2573941,15.6886303 L16.2573941,15.6886303 Z" id="Shape"></path>
                        <path d="M9,4.11001328 C9.37491102,4.11001328 9.73159322,3.94745297 9.97855932,3.66399984 C10.0821737,3.5450477 10.069589,3.36479298 9.95037712,3.26136626 C9.83112712,3.15793954 9.65047881,3.17053492 9.54686441,3.28948706 C9.40862288,3.44820407 9.20925,3.53922567 9,3.53922567 C8.79075,3.53922567 8.59141525,3.44820407 8.45313559,3.28948706 C8.34948305,3.17053492 8.16883475,3.1579776 8.04962288,3.26136626 C7.93041102,3.36479298 7.91778814,3.5450477 8.02144068,3.66399984 C8.26840678,3.94741492 8.62508898,4.11001328 9,4.11001328 L9,4.11001328 Z" id="Shape"></path>
                    </g>
                </g>
            </g>
        </g>
    </g>
</svg>