<?xml version="1.0" encoding="UTF-8"?>
<svg width="24px" height="24px" viewBox="0 0 24 24" version="1.1" xmlns="http://www.w3.org/2000/svg" xmlns:xlink="http://www.w3.org/1999/xlink">
    <!-- Generator: sketchtool 41.2 (35397) - http://www.bohemiancoding.com/sketch -->
    <title>sendemail</title>
    <desc>Created with sketchtool.</desc>
    <defs></defs>
    <g id="Icons" stroke="none" stroke-width="1" fill="none" fill-rule="evenodd">
        <g id="Icon-Set-2" transform="translate(-240.000000, -72.000000)" fill="#000000">
            <g id="Check-24" transform="translate(240.000000, 72.000000)">
                <g id="sendemail-icon" transform="translate(3.000000, 6.367129)">
                    <g id="Layer_1">
                        <path d="M17.9499375,6.08758307 L15.8957227,0.547102305 C15.8211211,0.345780163 15.672375,0.185536297 15.4769063,0.0958726981 C15.2814727,0.006209099 15.0627656,-0.00221001829 14.8610039,0.0722991697 L4.84439063,3.76990532 C4.64262891,3.84437943 4.48203516,3.99280145 4.39214063,4.18777418 C4.30228125,4.38278198 4.29387891,4.60104759 4.36851563,4.80233466 L6.42273047,10.3428154 C6.49733203,10.5441376 6.64607813,10.7043814 6.84154688,10.7940801 C6.94877344,10.8432969 7.06299609,10.8679929 7.17760547,10.8679929 C7.27189453,10.8679929 7.36639453,10.851295 7.45748438,10.8176536 L17.4741328,7.12004749 L17.474168,7.12004749 C17.8905234,6.96629336 18.1039922,6.50313667 17.9499375,6.08758307 Z M14.3104219,1.13233619 L11.203418,5.56444017 L5.95364062,4.21720601 L14.3104219,1.13233619 Z M7.03279688,9.67254845 L5.25097266,4.86663567 L9.37768359,5.92576062 L7.03279688,9.67254845 Z M7.90533984,9.79553772 L10.1958398,6.13567728 L11.2730977,6.41217512 C11.3065312,6.42062932 11.3403516,6.42504935 11.3733633,6.42504935 C11.5030195,6.42504935 11.6270508,6.36236201 11.7035508,6.25347476 L12.3410391,5.34336818 L16.467293,6.63493093 L7.90533984,9.79553772 Z M12.8254922,4.65289533 L15.2675508,1.16864364 L17.0500781,5.97522293 L12.8254922,4.65289533 Z" id="Shape"></path>
                        <path d="M4.69125,10.4528954 C4.61411719,10.2447678 4.38236719,10.1385466 4.17392578,10.2154763 L2.65651172,10.7756282 C2.44792969,10.8526631 2.34144141,11.0837679 2.41857422,11.2918604 C2.47869141,11.4540337 2.63253516,11.5543264 2.79625781,11.5543264 C2.84262891,11.5543264 2.88987891,11.5462581 2.93593359,11.5292444 L4.45327734,10.9690925 C4.66192969,10.8921628 4.76841797,10.661023 4.69125,10.4528954 Z" id="Shape"></path>
                        <path d="M2.63752734,6.72287563 C2.56032422,6.51474803 2.32867969,6.40856192 2.12016797,6.48545652 L1.1835,6.83123668 C0.974917969,6.90827161 0.868429688,7.1393413 0.9455625,7.34746889 C1.00567969,7.50960706 1.15955859,7.60993487 1.32324609,7.60993487 C1.36961719,7.60993487 1.41686719,7.60186655 1.46292188,7.58485292 L2.39958984,7.23907276 C2.60817188,7.16214307 2.71469531,6.93100322 2.63752734,6.72287563 Z" id="Shape"></path>
                        <path d="M1.47638672,9.76645669 C1.39918359,9.55832909 1.16753906,9.45207281 0.959027344,9.52903758 L0.263039063,9.78596097 C0.0544570313,9.8629959 -0.05203125,10.0941007 0.0251015625,10.3021932 C0.08521875,10.4643313 0.2390625,10.5646592 0.402785156,10.5646592 C0.44915625,10.5646592 0.49640625,10.5565908 0.542460938,10.5395772 L1.23844922,10.2826538 C1.44706641,10.205689 1.55355469,9.97458428 1.47638672,9.76645669 Z" id="Shape"></path>
                    </g>
                </g>
            </g>
        </g>
    </g>
</svg>