<?xml version="1.0" encoding="UTF-8"?>
<svg width="24px" height="24px" viewBox="0 0 24 24" version="1.1" xmlns="http://www.w3.org/2000/svg" xmlns:xlink="http://www.w3.org/1999/xlink">
    <!-- Generator: sketchtool 41.2 (35397) - http://www.bohemiancoding.com/sketch -->
    <title>settings</title>
    <desc>Created with sketchtool.</desc>
    <defs></defs>
    <g id="Icons" stroke="none" stroke-width="1" fill="none" fill-rule="evenodd">
        <g id="Icon-Set-4" transform="translate(-240.000000, -24.000000)" fill="#000000">
            <g id="Remove-24" transform="translate(240.000000, 24.000000)">
                <g id="settings-icon" transform="translate(2.928932, 2.928932)">
                    <g id="Expanded">
                        <g id="Group">
                            <path d="M16.5,17.9607835 L1.5,17.9607835 C0.67275,17.9607835 0,17.2894993 0,16.4640516 L0,1.49673196 C0,0.671284285 0.67275,0 1.5,0 L16.5,0 C17.32725,0 18,0.671284285 18,1.49673196 L18,16.4640516 C18,17.2894993 17.32725,17.9607835 16.5,17.9607835 Z M1.5,0.748365981 C1.086375,0.748365981 0.75,1.08400812 0.75,1.49673196 L0.75,16.4640516 C0.75,16.8767754 1.086375,17.2124176 1.5,17.2124176 L16.5,17.2124176 C16.913625,17.2124176 17.25,16.8767754 17.25,16.4640516 L17.25,1.49673196 C17.25,1.08400812 16.913625,0.748365981 16.5,0.748365981 L1.5,0.748365981 Z" id="Shape"></path>
                            <path d="M9,11.2254897 C8.793,11.2254897 8.625,11.0582299 8.625,10.8513067 L8.625,5.61274486 C8.625,5.40582166 8.793,5.23856186 9,5.23856186 C9.207,5.23856186 9.375,5.40582166 9.375,5.61274486 L9.375,10.8513067 C9.375,11.0582299 9.207,11.2254897 9,11.2254897 Z" id="Shape"></path>
                            <path d="M12.75,11.2254897 C12.543,11.2254897 12.375,11.0582299 12.375,10.8513067 L12.375,9.35457476 C12.375,9.14765156 12.543,8.98039177 12.75,8.98039177 C12.957,8.98039177 13.125,9.14765156 13.125,9.35457476 L13.125,10.8513067 C13.125,11.0582299 12.957,11.2254897 12.75,11.2254897 Z" id="Shape"></path>
                            <path d="M5.25,6.73529383 C5.043,6.73529383 4.875,6.56803403 4.875,6.36111084 L4.875,2.61928093 C4.875,2.41235774 5.043,2.24509794 5.25,2.24509794 C5.457,2.24509794 5.625,2.41235774 5.625,2.61928093 L5.625,6.36111084 C5.625,6.56803403 5.457,6.73529383 5.25,6.73529383 Z" id="Shape"></path>
                            <path d="M5.25,11.2254897 C5.043,11.2254897 4.875,11.0582299 4.875,10.8513067 L4.875,7.8578428 C4.875,7.6509196 5.043,7.48365981 5.25,7.48365981 C5.457,7.48365981 5.625,7.6509196 5.625,7.8578428 L5.625,10.8513067 C5.625,11.0582299 5.457,11.2254897 5.25,11.2254897 Z" id="Shape"></path>
                            <path d="M12.75,8.23202579 C12.543,8.23202579 12.375,8.06476599 12.375,7.8578428 L12.375,2.61928093 C12.375,2.41235774 12.543,2.24509794 12.75,2.24509794 C12.957,2.24509794 13.125,2.41235774 13.125,2.61928093 L13.125,7.8578428 C13.125,8.06476599 12.957,8.23202579 12.75,8.23202579 Z" id="Shape"></path>
                            <path d="M9,4.49019588 C8.793,4.49019588 8.625,4.32293609 8.625,4.11601289 L8.625,2.61928093 C8.625,2.41235774 8.793,2.24509794 9,2.24509794 C9.207,2.24509794 9.375,2.41235774 9.375,2.61928093 L9.375,4.11601289 C9.375,4.32293609 9.207,4.49019588 9,4.49019588 Z" id="Shape"></path>
                            <path d="M13.875,9.72875775 L11.625,9.72875775 C11.418,9.72875775 11.25,9.56149795 11.25,9.35457476 L11.25,7.8578428 C11.25,7.6509196 11.418,7.48365981 11.625,7.48365981 L13.875,7.48365981 C14.082,7.48365981 14.25,7.6509196 14.25,7.8578428 L14.25,9.35457476 C14.25,9.56149795 14.082,9.72875775 13.875,9.72875775 Z M12,8.98039177 L13.5,8.98039177 L13.5,8.23202579 L12,8.23202579 L12,8.98039177 Z" id="Shape"></path>
                            <path d="M10.125,5.98692785 L7.875,5.98692785 C7.668,5.98692785 7.5,5.81966805 7.5,5.61274486 L7.5,4.11601289 C7.5,3.9090897 7.668,3.7418299 7.875,3.7418299 L10.125,3.7418299 C10.332,3.7418299 10.5,3.9090897 10.5,4.11601289 L10.5,5.61274486 C10.5,5.81966805 10.332,5.98692785 10.125,5.98692785 Z M8.25,5.23856186 L9.75,5.23856186 L9.75,4.49019588 L8.25,4.49019588 L8.25,5.23856186 Z" id="Shape"></path>
                            <path d="M6.375,8.23202579 L4.125,8.23202579 C3.918,8.23202579 3.75,8.06476599 3.75,7.8578428 L3.75,6.36111084 C3.75,6.15418764 3.918,5.98692785 4.125,5.98692785 L6.375,5.98692785 C6.582,5.98692785 6.75,6.15418764 6.75,6.36111084 L6.75,7.8578428 C6.75,8.06476599 6.582,8.23202579 6.375,8.23202579 Z M4.5,7.48365981 L6,7.48365981 L6,6.73529383 L4.5,6.73529383 L4.5,7.48365981 Z" id="Shape"></path>
                            <path d="M12.75,15.7156856 C11.92275,15.7156856 11.25,15.0444013 11.25,14.2189536 C11.25,13.393506 11.92275,12.7222217 12.75,12.7222217 C13.57725,12.7222217 14.25,13.393506 14.25,14.2189536 C14.25,15.0444013 13.57725,15.7156856 12.75,15.7156856 Z M12.75,13.4705877 C12.336375,13.4705877 12,13.8062298 12,14.2189536 C12,14.6316775 12.336375,14.9673196 12.75,14.9673196 C13.163625,14.9673196 13.5,14.6316775 13.5,14.2189536 C13.5,13.8062298 13.163625,13.4705877 12.75,13.4705877 Z" id="Shape"></path>
                            <path d="M9,15.7156856 C8.17275,15.7156856 7.5,15.0444013 7.5,14.2189536 C7.5,13.393506 8.17275,12.7222217 9,12.7222217 C9.82725,12.7222217 10.5,13.393506 10.5,14.2189536 C10.5,15.0444013 9.82725,15.7156856 9,15.7156856 Z M9,13.4705877 C8.586375,13.4705877 8.25,13.8062298 8.25,14.2189536 C8.25,14.6316775 8.586375,14.9673196 9,14.9673196 C9.413625,14.9673196 9.75,14.6316775 9.75,14.2189536 C9.75,13.8062298 9.413625,13.4705877 9,13.4705877 Z" id="Shape"></path>
                            <path d="M5.25,15.7156856 C4.42275,15.7156856 3.75,15.0444013 3.75,14.2189536 C3.75,13.393506 4.42275,12.7222217 5.25,12.7222217 C6.07725,12.7222217 6.75,13.393506 6.75,14.2189536 C6.75,15.0444013 6.07725,15.7156856 5.25,15.7156856 Z M5.25,13.4705877 C4.836375,13.4705877 4.5,13.8062298 4.5,14.2189536 C4.5,14.6316775 4.836375,14.9673196 5.25,14.9673196 C5.663625,14.9673196 6,14.6316775 6,14.2189536 C6,13.8062298 5.663625,13.4705877 5.25,13.4705877 Z" id="Shape"></path>
                        </g>
                    </g>
                </g>
            </g>
        </g>
    </g>
</svg>