<?xml version="1.0" encoding="UTF-8"?>
<svg width="24px" height="24px" viewBox="0 0 24 24" version="1.1" xmlns="http://www.w3.org/2000/svg" xmlns:xlink="http://www.w3.org/1999/xlink">
    <!-- Generator: sketchtool 41.2 (35397) - http://www.bohemiancoding.com/sketch -->
    <title>socialmedia</title>
    <desc>Created with sketchtool.</desc>
    <defs></defs>
    <g id="Icons" stroke="none" stroke-width="1" fill="none" fill-rule="evenodd">
        <g id="Icon-Set-4" transform="translate(-168.000000, -25.000000)" fill="#000000">
            <g id="Add-24" transform="translate(168.000000, 24.000000)">
                <g id="socialmedia-icon" transform="translate(3.000000, 3.000000)">
                    <g id="Capa_1">
                        <path d="M16.0363636,0 C14.9534182,0 14.0727273,0.878772154 14.0727273,1.9593582 C14.0727273,2.29734749 14.1588,2.61541664 14.3103273,2.89331895 L11.0935636,6.10307425 C10.6501091,5.75855376 10.0950545,5.55151491 9.49090909,5.55151491 C8.88676364,5.55151491 8.33170909,5.75855376 7.88792727,6.10274769 L5.37807273,3.59836134 C5.49327273,3.40405832 5.56363636,3.18069148 5.56363636,2.93903731 C5.56363636,2.21864661 4.97650909,1.6327985 4.25454545,1.6327985 C3.53258182,1.6327985 2.94545455,2.21864661 2.94545455,2.93903731 C2.94545455,3.65942801 3.53258182,4.24527611 4.25454545,4.24527611 C4.49672727,4.24527611 4.72058182,4.17506577 4.91530909,4.06011676 L7.42516364,6.5645031 C7.08021818,7.00731806 6.87272727,7.56116331 6.87272727,8.16399252 C6.87272727,8.76682172 7.08021818,9.32066698 7.42516364,9.76315537 L3.28058182,13.899034 C2.93170909,13.5832507 2.47058182,13.3889477 1.96363636,13.3889477 C0.880690909,13.3889477 0,14.2677199 0,15.3483059 C0,16.428892 0.880690909,17.3076641 1.96363636,17.3076641 C3.04658182,17.3076641 3.92727273,16.428892 3.92727273,15.3483059 C3.92727273,15.0103166 3.8412,14.6922475 3.68967273,14.4143452 L7.88825455,10.2249108 C8.25021818,10.5057521 8.6868,10.6938505 9.16396364,10.7536109 L9.16396364,14.0714575 C8.2368,14.227553 7.5276,15.0321961 7.5276,16.0014253 C7.5276,17.0820114 8.40829091,17.9607835 9.49123636,17.9607835 C10.5741818,17.9607835 11.4548727,17.0820114 11.4548727,16.0014253 C11.4548727,15.0325227 10.7456727,14.2278796 9.81850909,14.0714575 L9.81850909,10.7536109 C10.2956727,10.6938505 10.7322545,10.5057521 11.0942182,10.2249108 L13.6040727,12.7292971 C13.4885455,12.9239267 13.4181818,13.1472935 13.4181818,13.3889477 C13.4181818,14.1093384 14.0053091,14.6951865 14.7272727,14.6951865 C15.4492364,14.6951865 16.0363636,14.1093384 16.0363636,13.3889477 C16.0363636,12.668557 15.4492364,12.0827089 14.7272727,12.0827089 C14.4850909,12.0827089 14.2612364,12.1529193 14.0665091,12.2678683 L11.5566545,9.76348193 C11.9016,9.32066698 12.1090909,8.76682172 12.1090909,8.16399252 C12.1090909,7.56116331 11.9016,7.00731806 11.5566545,6.56482966 L14.7197455,3.40863016 C15.0682909,3.72441339 15.5294182,3.91871641 16.0363636,3.91871641 C17.1193091,3.91871641 18,3.03994425 18,1.9593582 C18,0.878772154 17.1193091,0 16.0363636,0 Z M3.6,2.93903731 C3.6,2.57884196 3.89356364,2.2859179 4.25454545,2.2859179 C4.61552727,2.2859179 4.90909091,2.57884196 4.90909091,2.93903731 C4.90909091,3.29923266 4.61552727,3.59215671 4.25454545,3.59215671 C3.89356364,3.59215671 3.6,3.29923266 3.6,2.93903731 Z M1.96363636,16.6545447 C1.24167273,16.6545447 0.654545455,16.0686966 0.654545455,15.3483059 C0.654545455,14.6279152 1.24167273,14.0420671 1.96363636,14.0420671 C2.6856,14.0420671 3.27272727,14.6279152 3.27272727,15.3483059 C3.27272727,16.0686966 2.6856,16.6545447 1.96363636,16.6545447 Z M10.8,16.0014253 C10.8,16.721816 10.2128727,17.3076641 9.49090909,17.3076641 C8.76894545,17.3076641 8.18181818,16.721816 8.18181818,16.0014253 C8.18181818,15.2810346 8.76894545,14.6951865 9.49090909,14.6951865 C10.2128727,14.6951865 10.8,15.2810346 10.8,16.0014253 Z M9.49090909,10.1233507 C8.40796364,10.1233507 7.52727273,9.24457857 7.52727273,8.16399252 C7.52727273,7.08340647 8.40796364,6.20463431 9.49090909,6.20463431 C10.5738545,6.20463431 11.4545455,7.08340647 11.4545455,8.16399252 C11.4545455,9.24457857 10.5738545,10.1233507 9.49090909,10.1233507 Z M15.3818182,13.3889477 C15.3818182,13.7491431 15.0882545,14.0420671 14.7272727,14.0420671 C14.3662909,14.0420671 14.0727273,13.7491431 14.0727273,13.3889477 C14.0727273,13.0287524 14.3662909,12.7358283 14.7272727,12.7358283 C15.0882545,12.7358283 15.3818182,13.0287524 15.3818182,13.3889477 Z M16.0363636,3.26559701 C15.3144,3.26559701 14.7272727,2.6797489 14.7272727,1.9593582 C14.7272727,1.2389675 15.3144,0.653119401 16.0363636,0.653119401 C16.7583273,0.653119401 17.3454545,1.2389675 17.3454545,1.9593582 C17.3454545,2.6797489 16.7583273,3.26559701 16.0363636,3.26559701 Z" id="Shape"></path>
                    </g>
                </g>
            </g>
        </g>
    </g>
</svg>