<?xml version="1.0" encoding="UTF-8"?>
<svg width="24px" height="24px" viewBox="0 0 24 24" version="1.1" xmlns="http://www.w3.org/2000/svg" xmlns:xlink="http://www.w3.org/1999/xlink">
    <!-- Generator: sketchtool 41.2 (35397) - http://www.bohemiancoding.com/sketch -->
    <title>stripe</title>
    <desc>Created with sketchtool.</desc>
    <defs></defs>
    <g id="Icons" stroke="none" stroke-width="1" fill="none" fill-rule="evenodd">
        <g id="Icon-Set-3" transform="translate(-240.000000, -72.000000)">
            <g id="Check-24" transform="translate(240.000000, 72.000000)">
                <g id="stripe" transform="translate(3.000000, 6.000000)">
                    <g id="Group" transform="translate(0.045216, 0.436314)">
                        <g id="round-rect">
                            <g id="stripe">
                                <path d="M16.5162221,1.12682378e-07 C15.6234533,1.96790747e-07 6.17135125,-1.78602542e-07 0.89276876,1.12682378e-07 C0.44638438,1.37314945e-07 -2.22022625e-14,0.44561976 0,0.891239409 C0,3.57039699 1.07843465e-07,8.91239305 0,9.80363235 C-5.16511219e-08,10.6948716 0.44638438,11.1404913 1.33915314,11.1404913 C6.31892908,11.1404913 15.6234533,11.1404914 16.5162221,11.1404913 C17.4089908,11.1404913 17.8553752,10.6948716 17.8553752,9.80363235 C17.8553751,8.91239305 17.855375,4.29710369 17.8553752,1.33685905 C17.8553752,0.44561976 17.4089908,1.12682378e-07 16.5162221,1.12682378e-07 Z" id="Rectangle-2" fill="#000000"></path>
                                <g id="Group" transform="translate(1.859935, 2.635353)" fill="#FFFFFF">
                                    <path d="M12.4169179,3.36566101 C12.4170226,3.36829664 12.417126,3.37091851 12.4172278,3.37352636 C12.4558527,4.36268123 13.8121132,3.81481249 13.9282771,3.74079799 L14.0352932,4.46098481 C13.892316,4.57197042 13.4980688,4.73097607 12.8720851,4.73097607 C11.8375648,4.73097607 11.3866412,4.07535685 11.3866412,3.04285374 C11.3866412,2.01035062 11.9609456,1.3547314 12.755787,1.3547314 C13.8029655,1.3547314 14.1355054,2.11968251 14.1355054,2.91466939 L14.1355054,3.36566083 L12.4169179,3.36566083 L12.4169179,3.36566101 Z M12.4096592,2.74121433 C12.4296315,2.38508856 12.5152347,2.05849469 12.7975094,2.05849469 C13.1259916,2.05849469 13.1698202,2.54805926 13.1548183,2.73621181 L13.1626123,2.74121433 L12.4096592,2.74121433 Z" id="e"></path>
                                    <path d="M9.28190022,1.73352789 C9.5389648,1.47478121 9.8151609,1.3547314 10.086217,1.3547314 C10.9862263,1.3547314 11.1751901,2.19139215 11.1751901,3.0587295 C11.1751901,3.96621102 10.7350077,4.73097607 9.80075801,4.73097607 C9.60927232,4.73097607 9.46005238,4.70008119 9.35671071,4.65047444 L9.35671071,5.69410543 L8.33117295,5.86344686 L8.33117295,1.4076506 L9.22984009,1.4076506 L9.28190022,1.73352789 Z M9.35212675,2.34340389 C9.62996461,2.10928436 10.1353628,1.86715995 10.1353628,2.99057536 C10.1353628,4.0653483 9.63511615,4.02193857 9.35671071,3.88866712 L9.35671071,2.58220868 C9.35671071,2.49547701 9.3550043,2.41591359 9.35212675,2.34340368 L9.35212675,2.34340389 Z" id="p"></path>
                                    <path d="M7.40078816,1.10071926 C7.7044193,1.10071926 7.95056097,0.854314863 7.95056097,0.550359632 C7.95056097,0.246404401 7.7044193,0 7.40078816,0 C7.09715699,0 6.85101532,0.246404401 6.85101532,0.550359632 C6.85101532,0.854314863 7.09715699,1.10071926 7.40078816,1.10071926 Z M6.87216044,1.4076506 L7.92941589,1.4076506 L7.92941589,4.66747303 L6.87216044,4.66747303 L6.87216044,1.4076506 Z" id="i"></path>
                                    <path d="M4.8528025,1.4076506 L5.75146964,1.4076506 L5.80898954,1.79945547 C5.80898954,1.79945547 5.9758267,1.24862428 6.62899165,1.39620217 L6.62899165,2.34961228 C6.03604842,2.2929915 5.8783403,2.54309551 5.8783403,2.58220868 L5.8783403,4.66747303 L4.8528025,4.66747303 L4.8528025,1.4076506 Z" id="r"></path>
                                    <path d="M2.53375807,4.65494608 L2.53375807,3.84193358 C2.97090841,3.94564283 3.12582112,3.87887366 3.12582112,3.51172608 L3.12582112,2.18514934 L2.59132894,2.18514934 L2.47046729,1.41798638 L3.12582112,1.41798638 L3.12582112,0.476272758 L4.01391572,0.624446507 L4.14078634,1.41798638 L4.45809723,1.46657488 L4.56719896,2.18514934 L4.14078634,2.18514934 L4.14078634,3.72551135 C4.15182353,4.50501526 3.66672499,4.90366628 2.53375807,4.65494608 Z" id="r" transform="translate(3.518833, 2.602449) scale(-1, 1) translate(-3.518833, -2.602449) "></path>
                                    <path d="M1.00272001,3.8406519 C0.891191925,3.53274904 1.32151949,3.4429063 1.56855823,3.34426575 C2.31229201,3.04729891 2.33580299,2.81361549 2.37048236,2.35407732 C2.40516172,1.89453914 2.13853795,1.62880101 1.81909886,1.47570138 C1.32325165,1.2380535 0.36173826,1.41763497 0.167653402,1.58383432 L0.275980786,2.35407733 C1.2690782,1.92646543 1.38086436,2.18129363 1.40402273,2.27044016 C1.49667725,2.62710727 0.396202316,2.63456971 0.116298043,3.21322871 C-0.0317837645,3.51936505 -0.0551349539,4.04175947 0.249363547,4.3657924 C0.906569171,5.06515959 2.23539307,4.57521599 2.41235953,4.44883947 L2.28548888,3.6645191 C2.14034345,3.80766014 1.1142481,4.14855479 1.00272001,3.8406519 Z" id="s" transform="translate(1.211466, 3.047299) scale(-1, 1) translate(-1.211466, -3.047299) "></path>
                                </g>
                            </g>
                        </g>
                    </g>
                </g>
            </g>
        </g>
    </g>
</svg>