<?xml version="1.0" encoding="UTF-8"?>
<svg width="24px" height="24px" viewBox="0 0 24 24" version="1.1" xmlns="http://www.w3.org/2000/svg" xmlns:xlink="http://www.w3.org/1999/xlink">
    <!-- Generator: sketchtool 41.2 (35397) - http://www.bohemiancoding.com/sketch -->
    <title>support</title>
    <desc>Created with sketchtool.</desc>
    <defs></defs>
    <g id="Icons" stroke="none" stroke-width="1" fill="none" fill-rule="evenodd">
        <g id="Icon-Set-5" transform="translate(-24.000000, -72.000000)" fill="#000000">
            <g id="profile-copy" transform="translate(24.000000, 72.000000)">
                <g id="contactsupport-icon" transform="translate(3.250000, 3.000000)">
                    <g id="Group">
                        <path d="M10.5257031,17.4790588 C10.4759375,17.4790588 10.425625,17.4668824 10.3813281,17.4398824 C10.2675781,17.3715882 10.2216406,17.2328824 10.2730469,17.1132353 L11.4395312,14.3936471 L10.61375,14.3936471 C10.5224219,14.3936471 10.4371094,14.3491765 10.38625,14.2755882 C10.3353906,14.202 10.3266406,14.1093529 10.3616406,14.0272941 L10.7892969,13.0367647 C10.8472656,12.9012353 11.0085937,12.8382353 11.1464062,12.8938235 C11.2858594,12.9504706 11.3514844,13.1055882 11.2935156,13.2400588 L11.0244531,13.8637059 L11.8491406,13.8637059 C11.9404687,13.8637059 12.0257812,13.9081765 12.0766406,13.9817647 C12.1275,14.0553529 12.13625,14.148 12.1017969,14.2300588 L11.41875,15.8225294 L12.7919531,14.3015294 L13.50125,13.4724706 L12.3314844,13.4724706 C12.2396094,13.4724706 12.1542969,13.428 12.1034375,13.3533529 C12.0525781,13.2787059 12.044375,13.1860588 12.0799219,13.104 L13.2163281,10.5109412 C13.2742969,10.3764706 13.4334375,10.3134706 13.5739844,10.3690588 C13.7134375,10.4257059 13.7785156,10.5808235 13.7205469,10.7152941 L12.7449219,12.9425294 L14.0820312,12.9425294 C14.1875781,12.9425294 14.284375,13.0012941 14.3292187,13.0944706 C14.3746094,13.1876471 14.3603906,13.2972353 14.2925781,13.3755882 L13.2086719,14.6435294 L10.7324219,17.3890588 C10.6777344,17.4478235 10.6022656,17.4790588 10.5257031,17.4790588 L10.5257031,17.4790588 Z" id="Shape"></path>
                        <path d="M2.80273438,11.7513529 C1.25726563,11.7513529 0,10.5342353 0,9.03811765 C0,7.542 1.25726563,6.32488235 2.80273438,6.32488235 C3.285625,6.32488235 3.64054688,6.44294118 3.88882813,6.68647059 C4.32851563,7.11741176 4.31976563,7.82735294 4.30992188,8.64952941 L4.30664062,9.03864706 L4.30992188,9.42776471 C4.3203125,10.2499412 4.3290625,10.9593529 3.88882813,11.3902941 C3.64054688,11.6327647 3.285625,11.7513529 2.80273438,11.7513529 L2.80273438,11.7513529 Z M2.80273438,6.85429412 C1.55914062,6.85429412 0.546875,7.83370588 0.546875,9.03811765 C0.546875,10.242 1.55914062,11.2219412 2.80273438,11.2219412 C3.13195313,11.2219412 3.36,11.1547059 3.5,11.0170588 C3.77945313,10.7438824 3.77179688,10.1361176 3.76304688,9.43305882 L3.75976562,9.03758824 L3.76304688,8.64211765 C3.77179688,7.93905882 3.77945313,7.33129412 3.5,7.05811765 C3.36,6.921 3.13195313,6.85429412 2.80273438,6.85429412 L2.80273438,6.85429412 Z" id="Shape"></path>
                        <path d="M14.6228906,6.68858824 C14.4719531,6.68858824 14.3494531,6.57 14.3494531,6.42388235 C14.3494531,3.46076471 11.8589844,1.05035294 8.79867188,1.05035294 C5.7378125,1.05035294 3.24789062,3.46076471 3.24789062,6.42388235 C3.24789062,6.57 3.12539062,6.68858824 2.97445312,6.68858824 C2.82351562,6.68858824 2.70101562,6.57 2.70101562,6.42388235 C2.70101562,3.16905882 5.43648438,0.520941176 8.79867188,0.520941176 C12.1608594,0.520941176 14.8963281,3.16905882 14.8963281,6.42388235 C14.8963281,6.57052941 14.774375,6.68858824 14.6228906,6.68858824 L14.6228906,6.68858824 Z" id="Shape"></path>
                        <path d="M14.6972656,11.7513529 C14.214375,11.7513529 13.8594531,11.6322353 13.6111719,11.3892353 C13.1709375,10.9582941 13.1802344,10.2488824 13.1900781,9.42670588 L13.1933594,9.03758824 L13.1900781,8.64847059 C13.1796875,7.82629412 13.1709375,7.11635294 13.6111719,6.68541176 C13.8594531,6.44241176 14.2149219,6.32382353 14.6972656,6.32382353 C16.2427344,6.32382353 17.5,7.54094118 17.5,9.03705882 C17.5,10.5342353 16.2427344,11.7513529 14.6972656,11.7513529 Z M14.6972656,6.85429412 C14.3680469,6.85429412 14.14,6.921 14,7.05864706 C13.7210938,7.33235294 13.72875,7.93958824 13.7375,8.64264706 L13.7407813,9.03811765 L13.7375,9.43358824 C13.72875,10.1366471 13.7216406,10.7444118 14,11.0175882 C14.1405469,11.1552353 14.3685938,11.2224706 14.6972656,11.2224706 C15.9408594,11.2224706 16.953125,10.242 16.953125,9.03864706 C16.953125,7.83370588 15.9408594,6.85429412 14.6972656,6.85429412 Z" id="Shape"></path>
                        <path d="M2.32421875,10.4611765 C2.22578125,10.4611765 2.130625,10.4092941 2.08195313,10.3192941 C1.99828125,10.1641765 1.57882813,9.37323529 1.57226563,9.00952941 C1.56515625,8.61617647 1.99226563,7.73841176 2.078125,7.56635294 C2.14375,7.43505882 2.30671875,7.38 2.44289063,7.443 C2.5790625,7.50652941 2.6359375,7.66429412 2.5703125,7.79611765 C2.35101563,8.23764706 2.11585938,8.82317647 2.11914062,9 C2.121875,9.15829412 2.35375,9.68029412 2.56648437,10.0731176 C2.63648437,10.2022941 2.58507812,10.3627059 2.45164062,10.4299412 C2.410625,10.4505882 2.36742187,10.4611765 2.32421875,10.4611765 L2.32421875,10.4611765 Z" id="Shape"></path>
                        <path d="M14.93625,10.4611765 C14.8930469,10.4611765 14.8498437,10.4505882 14.809375,10.4299412 C14.6759375,10.3627059 14.6239844,10.2022941 14.6945313,10.0731176 C14.9072656,9.68029412 15.1385938,9.15829412 15.1413281,9 C15.1446094,8.82264706 14.9094531,8.23711765 14.6901563,7.79611765 C14.6245313,7.66429412 14.6814063,7.506 14.8175781,7.443 C14.9526563,7.38 15.1172656,7.43452941 15.1823438,7.56635294 C15.2682031,7.73841176 15.6953125,8.61617647 15.6882031,9.00952941 C15.6810938,9.37376471 15.2627344,10.1641765 15.1779688,10.3192941 C15.1298438,10.4092941 15.0346875,10.4611765 14.93625,10.4611765 L14.93625,10.4611765 Z" id="Shape"></path>
                    </g>
                </g>
            </g>
        </g>
    </g>
</svg>