<?xml version="1.0" encoding="UTF-8"?>
<svg width="24px" height="24px" viewBox="0 0 24 24" version="1.1" xmlns="http://www.w3.org/2000/svg" xmlns:xlink="http://www.w3.org/1999/xlink">
    <!-- Generator: sketchtool 41.2 (35397) - http://www.bohemiancoding.com/sketch -->
    <title>topbar</title>
    <desc>Created with sketchtool.</desc>
    <defs></defs>
    <g id="Icons" stroke="none" stroke-width="1" fill="none" fill-rule="evenodd">
        <g id="Icon-Set-4" transform="translate(-168.000000, -72.000000)" fill="#000000">
            <g id="Edit-24" transform="translate(168.000000, 72.000000)">
                <g id="topbar-icon" transform="translate(5.000000, 3.000000)">
                    <g id="Capa_1">
                        <path d="M10.1909035,0 L1.11966233,0 C0.510692259,0 0.0145540017,0.495248408 0.0145540017,1.10289172 L0.0145540017,16.8810955 C0.0145540017,17.4896561 0.510653959,17.9841401 1.11966233,17.9841401 L12.2311064,17.9841401 C12.8407276,17.9841401 13.336253,17.4896561 13.336253,16.8810955 L13.336253,3.41021656 L10.1909035,0 Z M10.4517265,1.65034395 L11.8303735,3.14541401 L10.4517265,3.14541401 L10.4517265,1.65034395 Z M12.408129,16.8811338 C12.408129,16.9782803 12.3284267,17.0580382 12.2306468,17.0580382 L1.11966233,17.0580382 C1.02195902,17.0580382 0.942716309,16.9782803 0.942716309,16.8811338 L0.942716309,1.10289172 C0.942716309,1.00551592 1.02195902,0.926598726 1.11966233,0.926598726 L9.5230663,0.926598726 L9.5230663,3.60867516 C9.5230663,3.86403822 9.73157153,4.07105732 9.98760706,4.07105732 L12.4080907,4.07105732 L12.4080907,16.8811338 L12.408129,16.8811338 Z M8.86319553,4.26928662 L1.93771212,4.26928662 L1.93771212,2.41880255 L8.86610633,2.41880255 C8.86610633,2.42900637 8.86319553,2.43733758 8.86319553,2.44773248 L8.86319553,4.26928662 L8.86319553,4.26928662 Z" id="Shape"></path>
                    </g>
                </g>
            </g>
        </g>
    </g>
</svg>