<?xml version="1.0" encoding="UTF-8"?>
<svg width="24px" height="24px" viewBox="0 0 24 24" version="1.1" xmlns="http://www.w3.org/2000/svg" xmlns:xlink="http://www.w3.org/1999/xlink">
    <!-- Generator: sketchtool 41.2 (35397) - http://www.bohemiancoding.com/sketch -->
    <title>transactions</title>
    <desc>Created with sketchtool.</desc>
    <defs></defs>
    <g id="Icons" stroke="none" stroke-width="1" fill="none" fill-rule="evenodd">
        <g id="Icon-Set-3" transform="translate(-240.000000, -24.000000)" fill="#000000">
            <g id="Remove-24" transform="translate(240.000000, 24.000000)">
                <g id="transactions-icon" transform="translate(3.000000, 3.500000)">
                    <g id="Capa_1">
                        <g id="Group">
                            <path d="M14.1470468,0.00731600144 L3.82362525,0.00731600144 C2.7898167,0.00731600144 1.9503055,0.844998166 1.9503055,1.87655437 L1.9503055,10.403354 L0.766191446,9.22181982 C0.590224033,9.04623578 0.307942974,9.04623578 0.13197556,9.22181982 C-0.0439918534,9.39740385 -0.0439918534,9.67906991 0.13197556,9.85465394 L2.08594705,11.8043683 C2.17393075,11.8921603 2.28757637,11.9360564 2.40488798,11.9360564 C2.52219959,11.9360564 2.63584521,11.8921603 2.72382892,11.8043683 L4.67780041,9.85465394 C4.85376782,9.67906991 4.85376782,9.39740385 4.67780041,9.22181982 C4.50183299,9.04623578 4.21955193,9.04623578 4.04358452,9.22181982 L2.85580448,10.407012 L2.85580448,1.87655437 C2.85580448,1.33882826 3.29205703,0.903526178 3.83095723,0.903526178 L14.1507128,0.903526178 C14.689613,0.903526178 15.1258656,1.33882826 15.1258656,1.87655437 L15.1258656,3.12027461 C15.1258656,3.36901866 15.3274949,3.5702087 15.5767821,3.5702087 C15.8260692,3.5702087 16.0276986,3.36901866 16.0276986,3.12027461 L16.0276986,1.87655437 C16.0167006,0.848656167 15.1771894,0.00731600144 14.1470468,0.00731600144 Z" id="Shape"></path>
                            <path d="M15.2505092,5.102911 L13.2965377,7.05262539 C13.1205703,7.22820942 13.1205703,7.50987548 13.2965377,7.68545951 C13.3845214,7.77325153 13.498167,7.81714754 13.6154786,7.81714754 C13.7327902,7.81714754 13.8464358,7.77325153 13.9344196,7.68545951 L15.1221996,6.50026728 L15.1221996,15.027067 C15.1221996,15.5647931 14.685947,16.0000952 14.1470468,16.0000952 L3.82362525,16.0000952 C3.28472505,16.0000952 2.84847251,15.5647931 2.84847251,15.027067 L2.84847251,13.7833467 C2.84847251,13.5346027 2.64684318,13.3334126 2.39755601,13.3334126 C2.14826884,13.3334126 1.94663951,13.5346027 1.94663951,13.7833467 L1.94663951,15.027067 C1.94663951,16.0586232 2.78615071,16.8963053 3.81995927,16.8963053 L14.1397149,16.8963053 C15.1735234,16.8963053 16.0130346,16.0586232 16.0130346,15.027067 L16.0130346,6.50026728 L17.2008147,7.68545951 C17.3767821,7.86104355 17.6590631,7.86104355 17.8350305,7.68545951 C18.010998,7.50987548 18.010998,7.22820942 17.8350305,7.05262539 L15.8810591,5.102911 C15.7197556,4.93464297 15.4191446,4.93464297 15.2505092,5.102911 Z" id="Shape"></path>
                            <path d="M8.98533605,4.48836688 C8.73604888,4.48836688 8.53441955,4.68955692 8.53441955,4.93830097 L8.53441955,5.62600511 L8.47576375,5.62600511 C7.61792261,5.62600511 6.91771894,6.36126325 6.91771894,7.26113143 C6.91771894,8.16099961 7.61792261,8.89625775 8.47576375,8.89625775 L9.48757637,8.89625775 C9.85050916,8.89625775 10.1474542,9.22913582 10.1474542,9.6351739 C10.1474542,10.04487 9.85050916,10.37409 9.48757637,10.37409 L7.66924644,10.37409 C7.41995927,10.37409 7.21832994,10.5752801 7.21832994,10.8240241 C7.21832994,11.0727682 7.41995927,11.2739582 7.66924644,11.2739582 L8.53441955,11.2739582 L8.53441955,11.9726364 C8.53441955,12.2213804 8.73604888,12.4225704 8.98533605,12.4225704 C9.23462322,12.4225704 9.43625255,12.2213804 9.43625255,11.9726364 L9.43625255,11.2703002 L9.50224033,11.2703002 L9.51323829,11.2703002 C10.3637475,11.2593262 11.0492872,10.5277261 11.0492872,9.6351739 C11.0492872,8.73164772 10.3490835,8.00004758 9.49124236,8.00004758 L8.47942974,8.00004758 C8.11649695,8.00004758 7.81955193,7.66716951 7.81955193,7.26113143 C7.81955193,6.85509335 8.11649695,6.52221528 8.47942974,6.52221528 L10.2647658,6.52221528 C10.514053,6.52221528 10.7156823,6.32102524 10.7156823,6.0722812 C10.7156823,5.82353715 10.514053,5.62234711 10.2647658,5.62234711 L9.43625255,5.62234711 L9.43625255,4.93464297 C9.43258656,4.68955692 9.23462322,4.48836688 8.98533605,4.48836688 Z" id="Shape"></path>
                        </g>
                    </g>
                </g>
            </g>
        </g>
    </g>
</svg>